<?xml version="1.0" encoding="UTF-8"?>
<!-- Generator: visioncortex VTracer 0.6.12 -->
<svg version="1.1" xmlns="http://www.w3.org/2000/svg"  viewBox="0 0 1536 1024">
<path d="M0 0 C4.38 4.2 6.85 9.11 7.36 15.18 C7.37 17.59 7.31 19.97 7.12 22.38 C7.91 22.42 8.69 22.46 9.5 22.5 C20.16 25.07 27.91 32.85 33.73 41.86 C36.55 47.05 37.86 51.97 38.57 57.83 C39.12 60.38 39.12 60.38 40.65 62.74 C43.79 68.36 43.01 76.77 41.5 82.92 C39.2 88.21 35.09 91.6 30.12 94.38 C28.93 94.7 27.73 95.03 26.5 95.38 C22.15 96.66 19.58 98.63 17.12 102.38 C15.93 105.44 14.96 108.49 14.08 111.67 C13.11 114.42 12.52 115.74 10.12 117.38 C8.14 117.49 8.14 117.49 5.94 117.25 C1.19 117.06 -1.22 118.47 -5.05 121.13 C-10.24 124.67 -15.8 124.85 -21.88 124.38 C-23.22 124.07 -24.55 123.75 -25.88 123.38 C-25.74 124.34 -25.61 125.3 -25.47 126.29 C-24.03 137.52 -23.52 148.69 -23.3 160.01 C-23.15 166.5 -22.67 172.64 -21.31 179.01 C-20.67 182.51 -20.74 185.82 -20.88 189.38 C-22.2 190.03 -23.51 190.69 -24.88 191.38 C-24.9 204.49 -23.96 216.64 -20.52 229.31 C-18.55 236.85 -17.17 244.36 -15.98 252.07 C-15.9 252.59 -15.9 252.59 -15.48 255.25 C-14.82 259.52 -14.16 263.8 -13.56 268.08 C-11.84 280.2 -9.73 290.53 -3.58 301.21 C-0.82 306.34 -0.89 309.77 -1.45 315.5 C-2.39 328.4 2.89 336.04 10.05 346.31 C13.63 351.61 16.88 357.11 20.17 362.6 C21.99 365.64 23.83 368.67 25.67 371.7 C26.29 372.72 26.91 373.74 27.54 374.8 C28.7 376.68 29.9 378.54 31.12 380.38 C34.84 379 38.1 377.27 41.5 375.25 C45.91 372.84 49.02 371.25 54.12 372.38 C57.72 375.56 60.21 378.8 62.58 382.95 C63.19 384.02 63.81 385.09 64.44 386.2 C65.08 387.33 65.72 388.46 66.38 389.62 C67.04 390.8 67.71 391.98 68.38 393.16 C70.31 396.56 72.22 399.97 74.12 403.38 C74.61 404.23 75.1 405.09 75.6 405.98 C80.71 415.01 84.71 423.99 87.93 433.86 C88.84 436.54 89.76 438.91 91.12 441.38 C91.56 440.84 92 440.31 92.45 439.77 C99.58 431.3 106.6 427.05 117.72 426.05 C126.85 425.78 133.99 427.31 142.12 431.38 C142.27 417.24 142.37 403.11 142.44 388.97 C142.47 382.41 142.51 375.84 142.58 369.28 C142.64 362.94 142.68 356.6 142.69 350.25 C142.71 347.84 142.73 345.43 142.76 343.02 C143.07 318.96 143.07 318.96 136.12 309.38 C135.47 308.32 134.82 307.27 134.14 306.18 C129.88 300.46 125.34 295.14 120.48 289.92 C118.54 287.82 116.66 285.69 114.81 283.5 C110.93 279 106.66 274.89 102.39 270.77 C100.93 269.34 99.52 267.86 98.12 266.38 C98.12 265.71 98.12 265.06 98.12 264.38 C97.69 264.54 97.69 264.54 95.52 265.35 C87.42 267.79 79.05 267.18 71.4 263.63 C56.62 255.47 49.34 239.87 44.12 224.38 C43.8 221.59 43.97 219.19 44.12 216.38 C49.94 214.38 55.19 214.02 61.31 214.06 C61.78 214.06 61.78 214.06 64.13 214.08 C75.55 214.27 87.24 216.46 96.16 224.12 C102.9 231.22 105.21 238.26 105.31 247.94 C105.55 253.58 106.17 256.34 110.25 260.31 C111.87 261.68 113.49 263.03 115.12 264.38 C116.28 265.64 117.41 266.93 118.5 268.25 C122.1 272.47 126.06 276.26 130.09 280.08 C132.97 283.01 135.37 286.29 137.81 289.58 C138.02 289.86 138.02 289.86 139.07 291.27 C140.09 292.64 141.11 294.01 142.12 295.38 C142.52 285.84 142.82 276.3 143.01 266.76 C143.09 262.32 143.21 257.89 143.41 253.46 C144.22 234.51 144.18 218.22 134.25 201.54 C133.89 200.93 133.53 200.32 133.16 199.69 C129.49 193.59 126.33 189.14 119.29 187.22 C117.57 186.93 115.85 186.65 114.12 186.38 C106.98 183.68 102.03 178.13 98.64 171.46 C92.77 157.3 92.49 142.48 93.12 127.38 C94.12 126.38 94.12 126.38 97.31 125.94 C108.18 126.11 118.51 133.2 126.12 140.38 C126.78 140.99 127.44 141.61 128.12 142.24 C136.75 151.17 138.62 160.8 138.47 172.79 C138.29 178.81 138.29 178.81 137.42 181.78 C137.01 185.37 138.24 187.11 140.06 190.19 C140.35 190.68 140.35 190.68 141.78 193.14 C142.22 193.88 142.67 194.62 143.12 195.38 C143.14 194.55 143.16 193.72 143.19 192.87 C143.26 189.76 143.35 186.65 143.44 183.53 C143.5 181.54 143.55 179.55 143.59 177.56 C143.79 170.99 144.17 164.77 145.73 158.38 C146.47 154.59 145.61 151.13 144.61 147.47 C140.84 132.92 142.91 118.89 150.41 106 C157.91 94.5 170.19 85.13 183.12 80.38 C186.75 80.06 186.75 80.06 189.12 80.38 C194.77 97.3 193.84 118.45 186.54 134.65 C180.56 146.17 172.31 152.2 160.12 156.38 C159.47 156.38 158.8 156.38 158.12 156.38 C157.81 158.27 157.5 160.17 157.19 162.06 C157.01 163.12 156.84 164.17 156.66 165.26 C155.18 175.72 154.98 186.22 155.03 196.77 C155.03 198.08 155.03 199.4 155.03 200.75 C155.04 204.19 155.05 207.64 155.06 211.08 C155.07 214.61 155.07 218.15 155.08 221.68 C155.09 228.58 155.1 235.48 155.12 242.38 C158.35 238.28 161.57 234.18 164.79 230.07 C165.85 228.72 166.92 227.37 167.99 226.02 C169.3 224.34 170.59 222.64 171.88 220.94 C172.31 220.39 172.75 219.85 173.2 219.28 C175.41 216.29 176.15 214.74 175.91 210.98 C175.65 209.79 175.39 208.6 175.12 207.38 C174.21 196.37 174.35 185.93 181.08 176.7 C191.58 164.32 205.6 158.8 221.12 155.38 C223.85 155.17 226.39 155.28 229.12 155.38 C232.17 161.46 229.88 170.75 228.88 177.25 C228.74 178.12 228.61 178.99 228.47 179.89 C226.07 194.5 221.41 206.43 209.12 215.38 C202.54 219.46 195.69 218.66 188.12 218.38 C187.85 218.96 187.57 219.54 187.28 220.15 C185.41 223.76 183.03 226.99 180.69 230.31 C180.16 231.07 179.62 231.83 179.08 232.6 C174.99 238.33 170.62 243.66 165.89 248.86 C164.95 250.02 164.03 251.19 163.12 252.38 C162.47 253.22 161.81 254.07 161.13 254.95 C154.63 264.26 154.04 271.69 154.34 282.83 C154.36 284.47 154.37 286.11 154.38 287.75 C154.41 292.03 154.49 296.3 154.58 300.57 C154.66 304.95 154.69 309.33 154.73 313.71 C154.82 322.26 154.96 330.82 155.12 339.38 C155.81 338.48 156.5 337.58 157.2 336.66 C158.11 335.47 159.02 334.29 159.93 333.1 C160.15 332.81 160.15 332.81 161.29 331.31 C164.31 327.39 167.41 323.66 170.81 320.06 C174.38 316.25 177.87 312.4 181.23 308.4 C183.12 306.38 183.12 306.38 185.93 304 C191.62 299.03 194.89 295.29 195.44 287.44 C195.46 287.1 195.46 287.1 195.56 285.37 C196.17 275.75 201 266.86 208.12 260.38 C222.42 248.19 243.13 246.48 261.12 247.38 C261.45 247.71 261.78 248.03 262.12 248.38 C261.86 264.8 254.51 286.48 243.12 298.38 C235.15 305.74 227.9 308.92 217.06 308.62 C216.3 308.62 215.53 308.61 214.75 308.61 C211.14 308.56 207.88 308.33 204.32 307.68 C201.12 307.38 201.12 307.38 198.94 308.53 C198.34 309.12 197.74 309.71 197.12 310.31 C196.46 310.96 195.79 311.61 195.1 312.28 C192.6 314.93 190.19 317.64 187.83 320.42 C186.21 322.27 184.52 323.98 182.75 325.69 C175.85 332.51 170.07 340.34 164.31 348.12 C163.86 348.74 163.4 349.35 162.93 349.98 C162.49 350.58 162.06 351.18 161.61 351.8 C161.22 352.32 160.84 352.84 160.45 353.38 C156.6 359.19 154.62 362.65 154.67 369.78 C154.67 370.13 154.67 370.13 154.67 371.91 C154.67 374.21 154.7 376.51 154.73 378.81 C154.74 380.41 154.75 382.02 154.75 383.62 C154.77 387.83 154.81 392.03 154.85 396.23 C154.89 400.53 154.91 404.83 154.93 409.12 C154.97 417.54 155.04 425.96 155.12 434.38 C155.74 434.16 156.35 433.95 156.98 433.73 C157.78 433.46 158.59 433.18 159.42 432.9 C160.22 432.63 161.01 432.36 161.83 432.07 C170.92 429.3 180.74 431.41 189.12 435.38 C195.18 438.97 199.2 443.27 202.84 449.26 C203.05 449.61 203.05 449.61 204.12 451.38 C204.57 452.12 205.01 452.87 205.47 453.64 C207.12 455.38 207.12 455.38 209.47 455.66 C209.92 455.62 209.92 455.62 212.19 455.44 C222.42 455.09 230.8 458.6 238.36 465.38 C242.74 469.85 245 473.23 245.38 479.53 C245.12 481.38 245.12 481.38 243.12 483.38 C240 484.12 240 484.12 236.12 483.38 C233.97 481.02 232.18 478.5 230.29 475.93 C226.01 470.89 220.21 468.5 213.75 467.5 C210.13 467.38 210.13 467.38 208.2 467.86 C205.85 468.44 203.79 468.47 201.38 468.44 C200.58 468.43 199.78 468.42 198.95 468.41 C198.65 468.4 198.65 468.4 197.12 468.38 C196.64 467.29 196.16 466.2 195.66 465.09 C191.43 455.94 188.22 449.49 178.68 445.3 C173.91 443.57 170.01 442.88 165.12 444.43 C162.74 445.56 160.71 446.97 158.56 448.5 C155.76 450.44 154.05 451.39 150.69 452.25 C146 451.1 143.49 448.59 139.88 445.49 C134.44 441.31 128.25 438.86 121.5 437.81 C114.69 438.95 108.06 441.44 103.12 446.38 C102.39 447.6 101.67 448.83 100.94 450.06 C99.33 452.47 98.65 453.25 95.8 453.91 C94.05 454.01 92.3 454.09 90.55 454.16 C86.88 454.49 84.88 456 82.12 458.38 C81.42 459.45 80.72 460.52 80 461.62 C77.12 464.38 77.12 464.38 74.32 464.65 C72.23 464.59 70.14 464.48 68.06 464.29 C64.58 464.39 62.98 465.46 60.12 467.38 C59.47 467.38 58.8 467.38 58.12 467.38 C57.84 467.95 57.55 468.53 57.25 469.12 C56.21 471.21 55.17 473.29 54.12 475.38 C48.07 475.57 48.07 475.57 46.12 475.38 C45.47 474.71 44.8 474.06 44.12 473.38 C44.34 466.78 45.8 462.82 50.49 457.96 C54.32 454.7 57.59 454.04 62.56 453.5 C68.32 452.79 71.57 451.29 75.93 447.52 C77.78 444.19 77 442.02 76.12 438.38 C75.2 435.65 74.07 433.05 72.88 430.44 C72.53 429.68 72.19 428.92 71.84 428.14 C65.21 413.75 57.34 399.9 49.12 386.38 C45.5 388.36 41.87 390.34 38.12 392.38 C38.83 396.6 39.29 399.22 40.9 402.94 C41.25 403.76 41.6 404.57 41.96 405.41 C42.32 406.25 42.69 407.08 43.06 407.94 C43.78 409.61 44.5 411.27 45.21 412.94 C45.85 414.42 46.49 415.9 47.12 417.38 C48.82 421.32 49.42 424.04 49.12 428.38 C48.12 429.38 48.12 429.38 45 429.94 C39.27 429.11 37.52 425.8 34.12 421.38 C32.97 420.03 31.8 418.7 30.62 417.38 C27.12 413.37 23.62 409.38 20.12 405.38 C16.23 406.76 13.16 408.59 9.81 411 C8.93 411.63 8.05 412.26 7.14 412.91 C6.47 413.4 5.81 413.88 5.12 414.38 C6.4 418.68 8.02 422.09 10.5 425.82 C11.18 426.84 11.85 427.85 12.55 428.9 C13.25 429.94 13.96 430.99 14.69 432.06 C15.03 432.58 15.03 432.58 16.74 435.17 C31.63 457.38 31.63 457.38 42.12 464.38 C42.49 466.25 42.49 466.25 42.44 468.38 C42.43 469.08 42.43 469.78 42.43 470.5 C42.12 472.38 42.12 472.38 40.12 474.38 C36.33 474.73 33.98 474.9 30.69 472.88 C30.43 472.63 30.43 472.63 29.12 471.38 C28.91 472.31 28.7 473.24 28.48 474.2 C26.77 478.22 25.42 478.64 21.44 480.25 C17.01 482.23 14.31 483.88 11.38 487.75 C8.68 491.23 8.68 491.23 6 491.95 C3.81 492 3.81 492 0.12 491.38 C-1.88 489.38 -1.88 489.38 -2.44 486.81 C-1.31 479.9 3.93 474.95 9.44 470.94 C14.08 468.05 18.75 467.03 24.12 466.38 C23.86 466.11 23.86 466.11 22.54 464.75 C11.64 453.14 -7.77 431.36 -8.19 415.06 C-8.22 414.12 -8.26 413.17 -8.3 412.2 C-7.65 407.88 -5.57 405.67 -2.14 403.05 C-0.16 401.67 1.84 400.36 3.88 399.06 C4.22 398.84 4.22 398.84 5.99 397.69 C7.7 396.57 9.41 395.47 11.12 394.38 C6.46 384.68 1.34 375.46 -4.31 366.31 C-5.03 365.14 -5.75 363.96 -6.47 362.79 C-7.54 361.04 -8.61 359.3 -9.69 357.56 C-11.51 354.61 -13.3 351.66 -15.03 348.66 C-15.39 348.06 -15.74 347.46 -16.1 346.85 C-17.07 345.19 -18.03 343.53 -18.99 341.87 C-21.06 339.13 -22.05 338.51 -25.38 337.94 C-26.12 337.87 -26.87 337.8 -27.64 337.72 C-32.88 336.91 -36.58 333.12 -39.64 329 C-43 323.65 -45.85 318.36 -45.89 311.89 C-46.04 302.97 -49.91 298.7 -55.88 292.38 C-57.58 290.48 -59.29 288.58 -61 286.69 C-61.84 285.77 -62.68 284.86 -63.54 283.92 C-65.5 281.79 -67.42 279.63 -69.31 277.44 C-72.32 273.97 -75.4 270.57 -78.5 267.19 C-78.96 266.69 -79.41 266.19 -79.88 265.67 C-82.8 262.49 -85.8 259.41 -88.88 256.38 C-87.25 261.4 -85.53 266.35 -83.64 271.28 C-83.23 272.36 -82.82 273.43 -82.4 274.54 C-81.57 276.7 -80.74 278.86 -79.9 281.02 C-78.76 284.04 -77.68 287.08 -76.64 290.14 C-76.1 291.71 -75.54 293.28 -74.97 294.84 C-68.01 314.22 -67.88 332.89 -67.99 353.2 C-68.01 357.62 -67.99 362.05 -67.97 366.47 C-67.94 371.78 -67.92 377.09 -67.92 382.4 C-67.91 392.82 -67.8 403.23 -67.54 413.65 C-67.51 414.85 -67.48 416.04 -67.45 417.27 C-67.34 421.65 -67.22 426.04 -67.09 430.43 C-67.01 433.3 -66.93 436.18 -66.86 439.05 C-66.83 439.88 -66.81 440.71 -66.78 441.57 C-66.73 443.5 -66.79 445.44 -66.88 447.38 C-67.54 448.04 -68.19 448.69 -68.88 449.38 C-68.4 449.95 -67.93 450.53 -67.44 451.12 C-65.88 453.38 -65.88 453.38 -65.64 455.26 C-64.42 458.62 -61.99 459.63 -59 461.5 C-58.39 461.88 -57.79 462.27 -57.16 462.66 C-51.07 466.42 -44.7 469.69 -38.27 472.84 C-33.76 475.11 -30.72 477.03 -27.88 481.38 C-28.85 478.75 -29.83 476.12 -30.81 473.5 C-31.09 472.75 -31.37 472.01 -31.65 471.24 C-33.76 465.6 -33.76 465.6 -34.88 463.38 C-35 459.81 -35 459.81 -34.88 456.38 C-33.88 455.38 -33.88 455.38 -30.69 454.75 C-26.88 455.38 -26.88 455.38 -25.25 457.03 C-21.56 462.48 -18.68 468.43 -15.88 474.38 C-15.68 474.03 -15.68 474.03 -14.67 472.29 C-14.4 471.84 -14.4 471.84 -13.06 469.56 C-12.54 468.67 -12.02 467.78 -11.48 466.86 C-10.06 464.66 -8.95 462.96 -6.88 461.38 C-4.15 460.98 -1.64 461.24 1.12 461.38 C1.7 467.61 0.55 470.95 -2.44 476.38 C-4.54 480.77 -5.84 485.35 -7.17 490.02 C-8.68 495.18 -8.68 495.18 -10.88 497.38 C25.94 503.4 25.94 503.4 41.56 505.19 C42.53 505.3 43.49 505.41 44.49 505.52 C91.7 510.67 137.16 504.3 183.49 495.46 C189.1 494.39 194.7 493.32 200.31 492.25 C200.66 492.18 200.66 492.18 202.44 491.85 C223.25 487.88 243.99 484.17 265.12 482.38 C266.19 482.28 267.25 482.19 268.34 482.1 C276.2 481.45 284.06 481.09 291.94 480.81 C293.12 480.77 294.3 480.73 295.52 480.68 C298.39 480.58 301.26 480.47 304.12 480.38 C304.07 479.15 304.02 477.93 303.96 476.67 C303.97 470.25 307.49 466.34 311.61 461.7 C314.35 459.08 316.1 458.38 319.88 457.94 C323.12 458.38 323.12 458.38 325.12 460.38 C325.58 463.96 325.58 465.73 323.48 468.72 C322.77 469.43 322.05 470.14 321.31 470.88 C318.06 474.15 316.04 477.17 314.12 481.38 C315.04 481.33 315.96 481.28 316.9 481.23 C365.75 479.63 431.42 492.11 475.12 514.38 C476.12 515.38 476.12 515.38 476.38 518.81 C476.33 519.4 476.33 519.4 476.12 522.38 C471.9 525.19 468.96 524.3 464.12 523.38 C461.24 522.6 458.45 521.63 455.65 520.62 C446.77 517.54 437.82 514.93 428.75 512.5 C427.97 512.29 427.19 512.08 426.38 511.86 C404.53 506 382.44 500.8 360.12 497 C359.71 496.93 359.71 496.93 357.58 496.56 C340.68 493.88 323.84 492.99 306.75 493.06 C305.74 493.06 304.74 493.07 303.7 493.07 C286.68 493.13 270 493.91 253.12 496.38 C252.76 496.43 252.76 496.43 250.88 496.7 C227.04 500.17 203.39 504.61 179.74 509.22 C154.7 514.1 154.7 514.1 142.81 515.88 C141.92 516.01 141.02 516.15 140.1 516.29 C121.68 518.86 103.26 519.73 84.69 519.62 C84.17 519.62 84.17 519.62 81.57 519.61 C66.66 519.56 51.93 519.26 37.12 517.38 C36 517.24 34.87 517.11 33.71 516.97 C11.57 514.29 -10.39 510.47 -32.36 506.7 C-52.63 503.23 -72.91 499.89 -93.25 496.88 C-94.31 496.72 -95.38 496.56 -96.48 496.39 C-117.96 493.18 -139.55 490.42 -161.25 489.19 C-161.93 489.15 -162.6 489.11 -163.3 489.07 C-209.15 486.45 -252.26 491.75 -296.71 502.83 C-329.07 510.88 -356.8 510.82 -389.83 507.04 C-416.19 504.09 -443.73 503.55 -469.88 508.38 C-470.85 508.55 -471.82 508.73 -472.83 508.91 C-488.94 511.98 -504.34 516.96 -519.78 522.41 C-520.16 522.54 -520.16 522.54 -522.05 523.2 C-523.46 523.69 -524.86 524.19 -526.26 524.7 C-530.59 526.2 -534.3 526.69 -538.88 526.38 C-539.88 525.38 -539.88 525.38 -539.97 523.31 C-539.97 522.9 -539.97 522.9 -539.94 520.81 C-539.93 519.99 -539.92 519.16 -539.91 518.31 C-539.9 517.67 -539.89 517.03 -539.88 516.38 C-520.93 508.88 -501.81 502.64 -481.88 498.38 C-487.04 483.2 -495.4 470.74 -508.44 461.19 C-512.79 457.87 -512.79 457.87 -513.56 453.44 C-512.88 450.38 -512.88 450.38 -511.88 449.38 C-507.47 448.64 -505.1 448.67 -501.18 450.91 C-498.32 452.97 -495.59 455.13 -492.88 457.38 C-492.15 457.94 -491.42 458.5 -490.68 459.08 C-480.66 467.18 -471.67 480.21 -470 493.19 C-469.96 494.24 -469.92 495.29 -469.88 496.38 C-468.56 496.05 -467.24 495.71 -465.88 495.38 C-467.16 474.73 -471.45 457.29 -482.6 439.65 C-484.39 436.46 -484.21 433.97 -483.88 430.38 C-481.88 428.38 -481.88 428.38 -479.19 427.69 C-474.61 428.64 -473.37 430.77 -470.73 434.5 C-470.43 434.98 -470.43 434.98 -468.88 437.38 C-468.2 438.42 -467.52 439.46 -466.83 440.53 C-460.24 451.33 -455.18 463.55 -454.88 476.38 C-454.85 477.28 -454.82 478.18 -454.79 479.11 C-454.72 484.31 -454.96 489.25 -455.88 494.38 C-454.56 494.38 -453.24 494.38 -451.88 494.38 C-451.92 493.18 -451.97 491.98 -452.02 490.75 C-452.47 473.79 -449.84 456.43 -437.88 443.38 C-434.75 442.94 -434.75 442.94 -431.88 443.38 C-431.22 444.04 -430.56 444.69 -429.88 445.38 C-430.18 450.95 -431.43 455.22 -433.62 460.38 C-437.93 471.01 -439.71 482.15 -441.88 493.38 C-426.69 493.38 -411.51 493.38 -395.88 493.38 C-396.21 493.05 -396.53 492.71 -396.88 492.38 C-397 490.88 -397.09 489.38 -397.17 487.88 C-397.68 482.27 -399.56 478.18 -402.19 473.25 C-407.71 462.26 -411.38 450.76 -411.88 438.38 C-411.91 437.39 -411.95 436.41 -412 435.4 C-412.34 418.19 -408.69 401.55 -396.62 388.62 C-387.36 379.96 -377.83 376.96 -365.31 377.2 C-354.73 377.75 -347.41 381.39 -340.06 389.12 C-335.73 394.38 -333.09 400.19 -332.62 407 C-332.71 407.78 -332.79 408.57 -332.88 409.38 C-329.25 409.38 -325.62 409.38 -321.88 409.38 C-320.33 413.23 -319.6 415.28 -319.28 419.17 C-319.24 419.61 -319.24 419.61 -319.04 421.83 C-319 422.28 -319 422.28 -318.81 424.56 C-318.66 426.37 -318.5 428.17 -318.34 429.98 C-318.31 430.38 -318.31 430.38 -318.14 432.39 C-317.88 434.38 -317.88 434.38 -316.88 436.38 C-316.51 435.9 -316.14 435.43 -315.76 434.94 C-312.1 430.22 -308.43 425.5 -304.75 420.79 C-303.57 419.26 -302.38 417.74 -301.2 416.21 C-299.72 414.31 -298.23 412.4 -296.75 410.5 C-296.31 409.94 -295.88 409.37 -295.43 408.79 C-289.19 400.81 -289.19 400.81 -284.88 399.38 C-285.15 398.83 -285.43 398.29 -285.71 397.73 C-286.08 397.02 -286.44 396.3 -286.81 395.56 C-287.17 394.85 -287.53 394.15 -287.9 393.42 C-290.52 387.92 -290.48 382.36 -289.88 376.38 C-288.07 373.3 -287.01 371.94 -283.88 370.38 C-274.96 369.44 -268.48 370.89 -261.34 376.29 C-252.87 383.51 -244.75 392.67 -243.6 404.14 C-243.43 409.24 -243.29 413.4 -246.88 417.38 C-251.16 419.92 -255.01 420.03 -259.88 419.38 C-267.43 416.82 -267.43 416.82 -269.88 414.38 C-270.08 415.45 -270.28 416.53 -270.49 417.64 C-272 423.64 -275.08 428.81 -278.06 434.19 C-278.68 435.32 -279.3 436.44 -279.93 437.61 C-281.57 440.6 -283.22 443.58 -284.87 446.56 C-285.86 448.36 -286.85 450.15 -287.84 451.95 C-295.31 465.55 -302.9 479.07 -310.88 492.38 C-303.38 491.71 -296.32 489.77 -289.06 487.81 C-286.64 487.16 -284.22 486.51 -281.79 485.87 C-280.73 485.58 -279.66 485.3 -278.57 485 C-275.88 484.38 -275.88 484.38 -272.88 484.38 C-272.91 483.34 -272.94 482.3 -272.98 481.23 C-273.22 471.03 -272.1 463.16 -267.81 453.81 C-264.48 446.52 -263.63 439.93 -264 431.95 C-263.86 429.02 -263.19 426.99 -261.88 424.38 C-256.56 421.72 -249.5 423.67 -243.94 424.88 C-238.15 426.05 -232.78 426.69 -226.88 426.38 C-226.59 425.6 -226.3 424.82 -226.01 424.01 C-223.12 416.32 -219.9 408.88 -216.37 401.46 C-214.83 398.21 -213.3 394.95 -211.78 391.7 C-211.46 391.02 -211.14 390.34 -210.81 389.65 C-204.7 376.62 -198.7 363.54 -192.88 350.38 C-192.43 349.38 -191.99 348.39 -191.54 347.36 C-179.36 319.53 -172.42 289.08 -165.73 259.54 C-164.1 252.36 -162.4 245.31 -159.88 238.38 C-156.5 238.25 -156.5 238.25 -152.88 238.38 C-150.88 240.38 -150.88 240.38 -150.64 242.26 C-150.66 243 -150.67 243.74 -150.69 244.5 C-150.69 245.22 -150.7 245.95 -150.71 246.7 C-150.88 249.38 -150.88 249.38 -151.77 252.99 C-152.54 259.04 -148.86 263.53 -145.75 268.44 C-144.45 270.58 -143.14 272.72 -141.84 274.86 C-141.51 275.41 -141.51 275.41 -139.83 278.15 C-136.85 283.07 -134.05 288.1 -131.25 293.12 C-126.98 300.73 -122.61 308.27 -118.12 315.75 C-117.61 316.61 -117.1 317.46 -116.57 318.35 C-113.01 324.24 -113.01 324.24 -111.88 325.38 C-111.77 327.23 -111.75 329.08 -111.75 330.94 C-111.75 331.95 -111.74 332.96 -111.74 334 C-111.87 337.14 -112.22 340.18 -112.63 343.29 C-115.54 368.48 -109.28 394.64 -104.25 419.22 C-102.75 426.59 -101.43 433.86 -100.88 441.38 C-85.13 440.41 -85.13 440.41 -77.88 439.38 C-78.2 438.38 -78.54 437.39 -78.88 436.38 C-79.02 434.6 -79.12 432.82 -79.18 431.04 C-79.2 430.48 -79.2 430.48 -79.3 427.64 C-79.34 426.4 -79.38 425.16 -79.41 423.88 C-79.46 422.57 -79.5 421.25 -79.54 419.9 C-79.89 408.43 -80 396.96 -80.09 385.49 C-80.1 383.66 -80.11 381.84 -80.13 380.01 C-80.19 372.51 -80.24 365.02 -80.28 357.52 C-80.3 352.86 -80.33 348.19 -80.38 343.53 C-80.39 341.78 -80.4 340.03 -80.4 338.28 C-80.42 328.55 -80.85 319.74 -83.88 310.38 C-84.1 309.64 -84.33 308.9 -84.56 308.14 C-85.19 306.14 -85.86 304.16 -86.55 302.18 C-86.79 301.47 -87.03 300.76 -87.28 300.02 C-88.06 297.76 -88.84 295.51 -89.62 293.25 C-90.16 291.69 -90.7 290.12 -91.24 288.56 C-94.25 279.82 -97.32 271.1 -101 262.61 C-102.75 258.4 -103.35 254.93 -102.88 250.38 C-100.38 248.44 -100.38 248.44 -97.88 247.38 C-99.03 245.89 -99.03 245.89 -100.88 244.38 C-103.38 244.14 -103.38 244.14 -106.44 244.19 C-112.69 243.85 -117.66 242.2 -123.38 239.69 C-124.14 239.36 -124.91 239.03 -125.69 238.7 C-131.35 236.09 -135.41 233.12 -137.77 227.09 C-137.82 226.73 -137.82 226.73 -138.12 224.88 C-138.2 224.45 -138.2 224.45 -138.58 222.29 C-138.88 219.37 -138.88 219.37 -138.86 215.93 C-138.9 206.7 -138.9 206.7 -141.77 202.8 C-144.36 200.46 -147.04 198.41 -149.88 196.38 C-151.78 194.84 -153.68 193.3 -155.56 191.75 C-156.48 191.01 -157.4 190.26 -158.34 189.5 C-161.13 187.16 -163.67 184.67 -166.2 182.05 C-168 180.25 -169.88 178.6 -171.81 176.94 C-176.05 173.29 -179.97 169.37 -183.88 165.38 C-189.47 169.92 -194.19 174.9 -198.88 180.38 C-194.93 183.8 -190.94 186.06 -186.25 188.25 C-185.52 188.59 -184.78 188.94 -184.03 189.29 C-174.51 193.62 -164.52 196.48 -154.49 199.34 C-154.04 199.47 -154.04 199.47 -151.75 200.12 C-151 200.33 -150.26 200.53 -149.49 200.73 C-147.88 201.38 -147.88 201.38 -146.88 203.38 C-146.69 206.38 -146.69 206.38 -146.88 209.38 C-149.22 211.72 -149.68 211.66 -152.87 211.66 C-158.18 211.54 -162.94 210.28 -168 208.75 C-168.92 208.48 -169.83 208.21 -170.77 207.93 C-182.78 204.3 -194.03 199.74 -204.88 193.38 C-216.3 213.82 -216.73 235.37 -217.44 258.25 C-217.46 258.93 -217.48 259.6 -217.5 260.3 C-217.79 269.5 -217.89 278.69 -217.85 287.9 C-217.84 292.99 -217.85 298.08 -217.87 303.17 C-217.87 305.7 -217.86 308.22 -217.83 310.75 C-217.65 324.41 -217.55 335.64 -225.62 347.1 C-231.53 355.68 -234.36 366.34 -237.23 376.27 C-238.67 381.17 -238.67 381.17 -240.88 383.38 C-243.59 383.7 -246.13 383.51 -248.88 383.38 C-249.88 382.38 -249.88 382.38 -250.06 378.8 C-250 374.51 -249.14 370.59 -247.88 366.5 C-247.66 365.78 -247.44 365.05 -247.21 364.31 C-244.28 355 -240.6 345.28 -235.38 337.01 C-230.8 329.6 -230.02 323.68 -230.11 315.08 C-230.09 313.83 -230.08 312.58 -230.07 311.29 C-230.05 308.62 -230.04 305.96 -230.05 303.3 C-230.07 299.15 -230.04 295.01 -230.01 290.86 C-229.96 285.45 -229.93 280.03 -229.92 274.62 C-229.63 210.34 -229.63 210.34 -217.46 188.62 C-215.88 185.38 -215.88 185.38 -215.09 181.45 C-213.92 176.32 -210.71 173.32 -207.06 169.69 C-206.45 169.05 -205.83 168.41 -205.19 167.76 C-202.52 165 -199.79 162.3 -197.05 159.61 C-194.88 157.38 -194.88 157.38 -192.88 154.38 C-193.55 152.54 -193.55 152.54 -194.75 150.44 C-197.9 143.77 -198.06 137.55 -196.05 130.47 C-189.71 115.59 -174.59 104.71 -161.88 95.38 C-161.29 94.94 -160.71 94.51 -160.11 94.07 C-141.82 80.53 -123.21 67.72 -99.69 67.94 C-98.6 67.94 -97.51 67.95 -96.38 67.95 C-88.56 68.09 -81.68 69.21 -74.2 71.41 C-67.57 73.33 -62.26 74.26 -55.88 71.38 C-55.81 70.4 -55.75 69.42 -55.69 68.42 C-55.61 67.15 -55.52 65.87 -55.44 64.56 C-55.36 63.3 -55.28 62.03 -55.19 60.73 C-54.88 57.38 -54.88 57.38 -53.88 54.38 C-54.24 54.25 -54.24 54.25 -56.06 53.62 C-60.44 51.68 -63.08 49.61 -65.69 45.56 C-68.24 38.85 -68.24 29.68 -65.53 23.11 C-62.76 18.53 -59.82 15.28 -54.94 13 C-51.51 12.3 -48.36 12.24 -44.88 12.38 C-44.77 11.63 -44.67 10.89 -44.57 10.13 C-43.25 4.9 -39.24 0.94 -34.81 -1.99 C-24.04 -7.59 -9.89 -7.59 0 0 Z M-27.88 8.38 C-33.12 12.95 -35.87 17.77 -37.88 24.38 C-38.68 24.32 -39.49 24.26 -40.32 24.2 C-49.03 23.83 -49.03 23.83 -53.06 26.44 C-55.26 30 -55.95 32.18 -55.88 36.38 C-54.17 39.92 -53.04 41.84 -49.44 43.5 C-45.91 43.33 -44.55 41.58 -41.88 39.38 C-39.06 39.12 -39.06 39.12 -36.88 39.38 C-36.52 44.41 -37.59 47.56 -39.81 52.06 C-42.68 57.94 -44 61.79 -43.88 68.38 C-41.89 68.7 -39.91 69.03 -37.88 69.38 C-37.21 68.26 -36.56 67.15 -35.88 66 C-35.5 65.37 -35.13 64.75 -34.75 64.1 C-33.88 62.38 -33.88 62.38 -33.88 60.38 C-28.37 57.99 -22.78 57.49 -16.88 58.38 C-14 60.56 -14 60.56 -11.88 63.38 C-8.16 67.37 -6.21 68.98 -0.87 69.61 C4.69 69.81 8.57 68.57 13.62 66.33 C17.44 64.87 21.06 64.64 25.12 64.38 C25.62 71.76 25.62 71.76 23.12 74.88 C22.47 75.37 21.81 75.87 21.12 76.38 C22.24 76.35 23.35 76.33 24.5 76.31 C28.12 76.38 28.12 76.38 30.12 77.38 C31.24 73.35 30.99 71.11 29.44 67.25 C29.06 66.29 28.69 65.34 28.3 64.36 C27.91 63.37 27.52 62.39 27.12 61.38 C26.46 59.44 25.79 57.5 25.12 55.56 C21.6 45.97 15.8 38.84 6.5 34.5 C0.63 31.96 -4.24 31.26 -10.62 31.38 C-12.71 31.41 -14.79 31.42 -16.88 31.38 C-17.88 30.38 -17.88 30.38 -17.97 28.53 C-17.94 26.48 -17.91 24.43 -17.88 22.38 C-15.57 22.05 -15.57 22.05 -3.88 20.38 C-4.87 14.83 -6.47 12.06 -10.95 8.61 C-16.97 4.75 -21.94 4.68 -27.88 8.38 Z M-23.88 68.38 C-25.99 70.57 -26.82 71.9 -27.17 74.95 C-27.15 75.39 -27.15 75.39 -27.06 77.62 C-27.04 78.52 -27.01 79.41 -26.98 80.33 C-26.96 80.67 -26.96 80.67 -26.88 82.38 C-28.36 82.26 -29.83 82.13 -31.31 82 C-32.14 81.93 -32.96 81.86 -33.81 81.79 C-34.49 81.65 -35.17 81.52 -35.88 81.38 C-36.2 80.72 -36.54 80.06 -36.88 79.38 C-43.14 78.98 -47 79.57 -52.59 82.35 C-56.21 83.97 -59.99 84.68 -63.88 85.38 C-63.38 95.25 -61.85 104.71 -59.88 114.38 C-58.75 113.77 -57.62 113.16 -56.46 112.53 C-56.14 112.36 -56.14 112.36 -54.53 111.49 C-52.88 110.38 -52.88 110.38 -51.56 107.94 C-49.55 104.89 -48.1 104.4 -44.81 102.94 C-40.07 100.77 -40.07 100.77 -38.25 97.06 C-38.13 96.18 -38 95.29 -37.88 94.38 C-35.89 94.38 -33.91 94.38 -31.88 94.38 C-31.43 95.34 -30.98 96.3 -30.52 97.3 C-29.91 98.57 -29.3 99.85 -28.69 101.12 C-28.4 101.76 -28.1 102.39 -27.8 103.05 C-25.79 107.2 -23.83 109.78 -19.88 112.38 C-16.88 113.38 -16.88 113.38 -14.97 112.7 C-14.64 112.53 -14.64 112.53 -12.94 111.62 C-12.23 111.25 -11.52 110.88 -10.79 110.5 C-8.88 109.38 -8.88 109.38 -6.88 107.69 C-3.73 105.62 -0.59 105.68 3.12 105.38 C3.26 104.98 3.26 104.98 3.97 102.96 C6.27 96.89 8.09 92.74 13.34 88.88 C16.7 86.04 19.03 82.21 21.12 78.38 C21.12 77.72 21.12 77.06 21.12 76.38 C20.83 76.48 20.83 76.48 19.32 77.03 C8.16 80.61 -4.78 81.35 -15.76 76.73 C-19.21 74.52 -20.36 72.13 -21.88 68.38 C-22.53 68.38 -23.2 68.38 -23.88 68.38 Z M-173.88 122.38 C-174.54 122.98 -175.2 123.59 -175.88 124.21 C-179.82 127.97 -184.01 132.17 -185.88 137.38 C-185.02 151.11 -168.4 163.66 -158.8 172.23 C-157.45 173.41 -156.1 174.58 -154.74 175.75 C-152.11 178.04 -149.56 180.39 -147 182.75 C-142.33 187.06 -137.61 191.3 -132.84 195.5 C-129.08 199.09 -128.66 201.61 -128.49 206.7 C-128.46 208.3 -128.42 209.9 -128.4 211.51 C-128.22 216.71 -127.7 220.85 -124.88 225.38 C-122.3 227.14 -119.6 228.23 -116.69 229.31 C-115.94 229.61 -115.19 229.92 -114.42 230.23 C-112.58 230.97 -110.73 231.67 -108.88 232.38 C-108.55 227.1 -108.22 221.81 -107.88 216.38 C-106.56 216.04 -105.24 215.72 -103.88 215.38 C-105.96 208.95 -109.82 205.07 -115.12 201.19 C-120.1 197.42 -123.7 192.99 -127.52 188.09 C-129.62 185.44 -131.78 182.84 -133.94 180.25 C-139.42 173.64 -144.83 166.99 -150.09 160.21 C-152.11 157.6 -154.16 155.04 -156.3 152.53 C-160.32 147.8 -162.88 144.71 -162.88 138.38 C-155.71 133.12 -148.29 128.64 -140.5 124.38 C-138.39 123.21 -136.28 122.04 -134.16 120.88 C-133.65 120.59 -133.65 120.59 -131.03 119.15 C-126.82 116.78 -122.69 114.28 -118.57 111.75 C-114.6 109.72 -111.3 109.45 -106.88 109.38 C-106.71 110.86 -106.71 110.86 -105.88 118.38 C-106.6 118.65 -107.32 118.92 -108.06 119.2 C-110.81 120.35 -113.31 121.66 -115.9 123.13 C-116.85 123.67 -117.8 124.21 -118.78 124.77 C-119.78 125.34 -120.78 125.91 -121.81 126.5 C-122.83 127.08 -123.86 127.66 -124.91 128.26 C-127.9 129.96 -130.89 131.67 -133.88 133.38 C-135.42 134.25 -136.96 135.13 -138.5 136.01 C-141.63 137.8 -144.75 139.58 -147.88 141.38 C-146.32 146.36 -143.36 149.76 -140.06 153.69 C-138.89 155.11 -137.71 156.54 -136.53 157.96 C-135.93 158.69 -135.32 159.42 -134.7 160.17 C-132.36 163 -130.04 165.85 -127.72 168.71 C-126.62 170.06 -125.52 171.41 -124.42 172.76 C-122.04 175.67 -119.69 178.6 -117.42 181.6 C-116.73 182.52 -116.03 183.43 -115.31 184.38 C-114.73 185.16 -114.15 185.94 -113.56 186.75 C-111.88 188.38 -111.88 188.38 -107.88 188.38 C-105.63 186.67 -103.66 184.99 -101.62 183.06 C-101.07 182.56 -100.52 182.06 -99.95 181.55 C-98.52 180.23 -97.19 178.8 -95.88 177.38 C-95.88 176.38 -95.88 175.39 -95.88 174.38 C-95.55 174.34 -95.55 174.34 -93.89 174.15 C-81.42 172.35 -71.91 167.08 -63.88 157.38 C-61.82 154.44 -59.81 151.5 -57.89 148.46 C-55.88 146.38 -55.88 146.38 -52.7 146 C-49.88 146.38 -49.88 146.38 -48.88 147.38 C-47.75 153.87 -50.47 157.52 -54.05 162.82 C-55.88 165.38 -55.88 165.38 -57.62 167.25 C-59.51 170.45 -58.93 173 -58.56 176.62 C-58.44 177.89 -58.32 179.15 -58.2 180.45 C-58.15 180.94 -58.15 180.94 -57.88 183.38 C-55.56 183.23 -53.25 183.09 -50.94 182.94 C-49.65 182.86 -48.36 182.78 -47.04 182.69 C-42.63 182.38 -38.26 181.89 -33.88 181.38 C-33.97 176.83 -34.08 172.28 -34.19 167.73 C-34.23 166.19 -34.27 164.65 -34.3 163.11 C-34.99 129.96 -34.99 129.96 -41.88 118.38 C-43.9 117.43 -43.9 117.43 -45.88 117.38 C-48.13 119 -48.13 119 -50.88 121.38 C-56.36 125.55 -59.96 126.99 -66.88 126.38 C-71.09 112.25 -73.08 97.97 -74.88 83.38 C-116.66 73.49 -144.18 94.81 -173.88 122.38 Z M179.12 96.38 C166.19 105.24 157.48 114.64 154.12 130.38 C153.69 135.55 154.54 139.51 156.12 144.38 C162.84 143.96 168.02 138.79 172.38 134.06 C180.15 124.43 182.38 111.47 181.12 99.38 C180.47 98.38 179.8 97.39 179.12 96.38 Z M104.12 140.38 C104.95 153.28 107.18 165.22 117.06 174.31 C120.51 176.63 123.1 177.49 127.12 178.38 C128.91 169.41 127.3 162.82 122.72 154.96 C118.14 148.43 111.97 144.33 105.12 140.38 C104.79 140.38 104.47 140.38 104.12 140.38 Z M194.12 180.38 C188.78 186.7 185.72 192.97 186.12 201.38 C187.83 199.75 189.5 198.08 191.12 196.38 C191.12 195.72 191.12 195.06 191.12 194.38 C194.95 191.98 198.72 191.82 203.12 191.38 C202.7 192.96 202.26 194.54 201.81 196.12 C201.57 197.01 201.33 197.89 201.07 198.8 C200.1 201.44 198.84 203.17 197.12 205.38 C197.12 206.03 197.12 206.69 197.12 207.38 C204.46 205.15 208.82 200.49 212.38 193.88 C216.08 185.93 218.42 177.19 218.12 168.38 C209.35 168.38 200.28 174.74 194.12 180.38 Z M-76.62 180.69 C-77.24 180.9 -77.24 180.9 -80.36 181.99 C-86.31 184.34 -90.27 187.49 -94.69 192.06 C-95.19 192.57 -95.69 193.08 -96.21 193.61 C-97.44 194.86 -98.66 196.12 -99.88 197.38 C-98.78 199.61 -97.64 201.79 -96.44 203.97 C-93.6 209.25 -91.65 213.55 -91.12 219.56 C-90.49 224.45 -89.32 226.4 -85.53 229.51 C-81.57 232.89 -77.76 236.36 -74.08 240.04 C-73.59 240.53 -73.1 241.01 -72.6 241.51 C-71.61 242.51 -70.61 243.5 -69.62 244.5 C-68.12 246.01 -66.6 247.52 -65.09 249.02 C-60.14 253.97 -55.33 258.97 -50.88 264.38 C-49.88 262.38 -49.88 262.38 -50.52 259.91 C-50.88 258.88 -51.24 257.85 -51.61 256.79 C-51.99 255.62 -52.38 254.46 -52.79 253.26 C-52.99 252.63 -53.2 252.01 -53.42 251.37 C-58.62 235.76 -62.08 219.94 -63.05 203.46 C-63.1 202.56 -63.16 201.66 -63.22 200.73 C-63.25 199.94 -63.28 199.14 -63.32 198.32 C-63.5 197.68 -63.69 197.04 -63.88 196.38 C-65.2 195.69 -66.53 195.02 -67.88 194.38 C-68.34 191.55 -68.57 189.08 -68.62 186.25 C-68.65 185.5 -68.68 184.74 -68.71 183.96 C-68.79 182.1 -68.83 180.24 -68.88 178.38 C-71.39 178.38 -74.31 179.87 -76.62 180.69 Z M-46.06 193.38 C-47.33 193.56 -48.61 193.75 -49.92 193.94 C-50.89 194.08 -51.87 194.23 -52.88 194.38 C-52.13 216.34 -47.34 235.51 -40.53 256.36 C-39.86 258.43 -39.18 260.5 -38.51 262.57 C-37.16 266.72 -35.8 270.86 -34.44 275 C-34.22 275.65 -34.01 276.31 -33.79 276.98 C-33.18 278.84 -32.56 280.69 -31.94 282.54 C-31.59 283.6 -31.24 284.65 -30.88 285.74 C-29.88 288.38 -29.88 288.38 -27.88 291.38 C-27.75 294.56 -27.75 294.56 -27.88 297.38 C-28.87 297.7 -28.87 297.7 -33.88 299.38 C-35.76 312.85 -35.76 312.85 -32.27 318.65 C-29.83 321.67 -26.98 324.07 -23.88 326.38 C-21.96 321.41 -20.27 316.51 -18.88 311.38 C-17.88 311.21 -17.88 311.21 -12.88 310.38 C-13.46 308.89 -14.04 307.42 -14.62 305.94 C-14.95 305.11 -15.27 304.29 -15.61 303.44 C-16.3 301.77 -17.01 300.1 -17.8 298.47 C-20.57 292.72 -21.88 287.28 -22.84 280.99 C-23 280.01 -23.16 279.03 -23.32 278.02 C-23.83 274.91 -24.32 271.8 -24.81 268.69 C-25.46 264.62 -26.11 260.55 -26.78 256.49 C-26.94 255.48 -27.1 254.47 -27.27 253.43 C-28.43 246.51 -29.91 239.7 -31.55 232.88 C-33.7 223.87 -34.79 215.26 -35.19 206 C-35.26 204.65 -35.33 203.31 -35.41 201.96 C-35.58 198.77 -35.74 195.57 -35.88 192.38 C-39.36 192.38 -42.62 192.87 -46.06 193.38 Z M58.12 225.38 C61.18 236.67 67.83 247.44 78.02 253.44 C81.39 254.94 84.46 255.18 88.12 255.38 C87.72 254.94 87.31 254.5 86.88 254.05 C83.51 250.33 81.34 247.37 80.12 242.38 C85.5 242.71 89.66 243.06 94.12 246.38 C93.32 239.55 89.26 234.92 84.12 230.7 C80.71 228.44 77.06 227.38 73.12 226.38 C72.32 226.15 71.52 225.92 70.69 225.69 C66.51 225.18 62.33 225.3 58.12 225.38 Z M247.12 258.38 C233.28 260.96 220.33 263.74 211.12 275.38 C209.12 278.69 209.12 278.69 208.12 281.38 C208.46 282.04 208.78 282.69 209.12 283.38 C210.03 282.68 210.94 281.98 211.87 281.26 C223.86 272.23 223.86 272.23 232.12 271.38 C232.91 278.33 232.91 278.33 230.93 280.97 C229.2 282.44 227.44 283.73 225.56 285 C224.28 285.94 222.99 286.87 221.71 287.81 C221.09 288.25 220.47 288.69 219.83 289.14 C216.76 291.36 213.97 293.87 211.12 296.38 C213.12 298.38 213.12 298.38 215.01 298.49 C224.89 297.42 230.63 293.61 237.07 286.11 C242.15 279.34 246.51 269.75 248.12 261.38 C247.96 260.88 247.96 260.88 247.12 258.38 Z M-156.88 275.38 C-158.6 279.38 -159.71 283.38 -160.76 287.61 C-161.12 289.05 -161.48 290.49 -161.84 291.94 C-161.94 292.31 -161.94 292.31 -162.41 294.22 C-171.14 329.01 -183.17 361.16 -199.01 393.32 C-202.02 399.44 -204.89 405.59 -207.62 411.83 C-207.94 412.54 -208.25 413.25 -208.57 413.99 C-210.11 417.47 -211.63 420.96 -213.12 424.46 C-213.67 425.73 -214.23 426.99 -214.78 428.25 C-215.26 429.36 -215.74 430.47 -216.23 431.62 C-217.88 434.38 -217.88 434.38 -220.57 435.95 C-220.95 436.18 -220.95 436.18 -222.88 437.38 C-222.88 439.02 -222.88 440.67 -222.88 442.38 C-226.5 442.38 -230.13 442.38 -233.88 442.38 C-233.88 440.73 -233.88 439.08 -233.88 437.38 C-234.54 437.38 -235.19 437.38 -235.88 437.38 C-235.88 438.69 -235.88 440.01 -235.88 441.38 C-239.17 441.04 -242.48 440.72 -245.88 440.38 C-246.2 438.73 -246.54 437.08 -246.88 435.38 C-248.19 435.38 -249.51 435.38 -250.88 435.38 C-252.63 439.23 -253.22 442.61 -253.62 446.81 C-254.52 453.72 -256.61 459.17 -259.54 465.41 C-261.73 470.26 -262.07 474.03 -261.88 479.38 C-261.55 480.03 -261.21 480.69 -260.88 481.38 C-251.49 480.68 -242.12 479.9 -232.75 479.07 C-230.48 478.87 -228.21 478.68 -225.94 478.48 C-224.47 478.35 -223.01 478.22 -221.54 478.09 C-220.23 477.98 -218.93 477.87 -217.58 477.75 C-213.99 477.39 -210.45 476.91 -206.88 476.38 C-209.63 472.89 -213.51 471.72 -217.5 470.12 C-232.03 464.04 -232.03 464.04 -236.09 457.39 C-237.29 454.32 -237.11 451.63 -236.88 448.38 C-236.21 447.38 -235.56 446.39 -234.88 445.38 C-231.75 445.19 -231.75 445.19 -228.88 445.38 C-228.55 446.22 -228.22 447.07 -227.88 447.94 C-222.66 456.9 -214.21 460.35 -204.95 463.99 C-199.42 466.29 -196.58 467.96 -193.88 473.38 C-193.55 474.37 -193.22 475.36 -192.88 476.38 C-192.36 476.39 -192.36 476.39 -189.78 476.5 C-163.04 477.56 -136.49 479.59 -109.88 482.38 C-109.75 481.36 -109.63 480.35 -109.51 479.3 C-109.34 477.95 -109.17 476.6 -109 475.25 C-108.92 474.58 -108.84 473.92 -108.76 473.23 C-108.23 469.06 -107.28 465.33 -105.88 461.38 C-105.61 459.59 -105.4 457.8 -105.25 456 C-105.21 455.56 -105.21 455.56 -105.02 453.35 C-105 453.03 -105 453.03 -104.88 451.38 C-105.18 451.29 -105.18 451.29 -106.73 450.84 C-109.97 448.63 -110.33 445.63 -111.19 442 C-111.29 441.6 -111.29 441.6 -111.8 439.55 C-119.76 406.35 -127.94 370.13 -123.15 335.94 C-122.66 331.41 -123.5 329.1 -126.19 325.31 C-126.94 324.2 -127.69 323.08 -128.45 321.96 C-128.85 321.38 -129.25 320.79 -129.66 320.19 C-131.77 317.05 -133.66 313.77 -135.56 310.5 C-135.77 310.15 -135.77 310.15 -136.79 308.41 C-139.34 304.06 -141.83 299.68 -144.3 295.28 C-144.88 294.24 -145.46 293.2 -146.06 292.13 C-147.21 290.07 -148.36 288.01 -149.5 285.95 C-150.02 285.01 -150.55 284.07 -151.09 283.1 C-151.32 282.68 -151.32 282.68 -152.5 280.56 C-153.79 278.51 -155.09 276.99 -156.88 275.38 Z M-279.88 381.38 C-279.55 381.87 -279.55 381.87 -277.88 384.38 C-277.21 383.38 -276.56 382.39 -275.88 381.38 C-277.19 381.38 -278.51 381.38 -279.88 381.38 Z M-268.88 386.38 C-267.88 388.38 -267.88 388.38 -267.88 388.38 Z M-389.86 399.85 C-394.88 406.82 -394.88 406.82 -394.88 409.38 C-378.04 409.38 -361.22 409.38 -343.88 409.38 C-347.72 399.77 -350.34 394.35 -359.38 389.94 C-370.33 385.67 -382.7 390.93 -389.86 399.85 Z M-273.88 391.38 C-273.55 392.04 -273.21 392.69 -272.88 393.38 C-272.55 392.71 -272.21 392.06 -271.88 391.38 C-272.54 391.38 -273.19 391.38 -273.88 391.38 Z M-260.88 395.38 C-262.19 395.7 -263.51 396.04 -264.88 396.38 C-264.55 397.04 -264.21 397.69 -263.88 398.38 C-262.56 398.05 -261.24 397.71 -259.88 397.38 C-260.2 396.71 -260.54 396.06 -260.88 395.38 Z M-265.88 399.38 C-265.88 402.38 -265.88 402.38 -265.88 402.38 Z M-256.88 405.38 C-257.2 406.04 -257.54 406.69 -257.88 407.38 C-256.88 407.38 -255.89 407.38 -254.88 407.38 C-254.88 406.71 -254.88 406.06 -254.88 405.38 C-255.54 405.38 -256.19 405.38 -256.88 405.38 Z M-398.88 420.38 C-403.06 432.66 -400.11 445.4 -395.88 457.38 C-395.54 457.38 -395.22 457.38 -394.88 457.38 C-394.22 445.16 -393.56 432.95 -392.88 420.38 C-394.86 420.38 -396.84 420.38 -398.88 420.38 Z M-280.88 404.38 C-281.03 404.94 -281.18 405.51 -281.34 406.1 C-283.05 411.84 -285.28 415.76 -289.19 420.25 C-290.27 421.54 -291.34 422.84 -292.41 424.14 C-292.98 424.82 -293.54 425.5 -294.12 426.2 C-297.23 430.06 -300.14 434.06 -303.06 438.06 C-303.65 438.87 -304.25 439.67 -304.86 440.49 C-307.47 444.04 -310.05 447.6 -312.52 451.25 C-312.91 451.82 -313.3 452.39 -313.71 452.97 C-314.73 454.44 -315.72 455.93 -316.71 457.42 C-318.88 459.38 -318.88 459.38 -322.57 459.74 C-325.88 459.38 -325.88 459.38 -326.88 458.38 C-327.17 455.65 -327.4 452.95 -327.59 450.22 C-327.63 449.81 -327.63 449.81 -327.78 447.74 C-328.05 444.23 -328.31 440.72 -328.57 437.2 C-328.76 434.65 -328.96 432.09 -329.16 429.53 C-329.21 428.73 -329.27 427.93 -329.33 427.1 C-329.76 421.49 -329.76 421.49 -330.88 420.38 C-332.47 420.28 -334.07 420.26 -335.67 420.26 C-336.18 420.26 -336.18 420.26 -338.76 420.26 C-339.87 420.27 -340.98 420.27 -342.13 420.28 C-342.69 420.28 -342.69 420.28 -345.55 420.28 C-349.18 420.29 -352.81 420.3 -356.44 420.31 C-358.89 420.32 -361.34 420.32 -363.79 420.33 C-369.82 420.34 -375.85 420.35 -381.88 420.38 C-382.93 423.93 -383.14 427.38 -383.36 431.07 C-383.39 431.74 -383.43 432.4 -383.47 433.08 C-383.6 435.27 -383.73 437.45 -383.85 439.64 C-383.94 441.16 -384.02 442.68 -384.11 444.2 C-384.34 448.19 -384.57 452.18 -384.8 456.17 C-385.03 460.25 -385.27 464.32 -385.5 468.4 C-385.96 476.39 -386.42 484.38 -386.88 492.38 C-388.03 492.7 -388.03 492.7 -393.88 494.38 C-393.88 494.7 -393.88 495.03 -393.88 495.38 C-345 501.35 -345 501.35 -321.88 496.38 C-322.01 495.13 -322.15 493.89 -322.29 492.62 C-322.27 485.88 -318.77 481.07 -315.31 475.5 C-314.28 473.78 -313.25 472.06 -312.22 470.33 C-311.51 469.14 -310.8 467.95 -310.09 466.76 C-306.3 460.47 -302.74 454.06 -299.19 447.62 C-298.57 446.51 -297.95 445.4 -297.31 444.26 C-294.29 438.82 -291.33 433.36 -288.48 427.82 C-287.94 426.8 -287.41 425.77 -286.85 424.71 C-285.85 422.79 -284.87 420.86 -283.91 418.91 C-280.61 412.61 -280.61 412.61 -276.54 411.29 C-276.1 411.3 -276.1 411.3 -273.88 411.38 C-274.85 410.21 -275.83 409.04 -276.81 407.88 C-277.36 407.23 -277.9 406.58 -278.46 405.91 C-278.93 405.4 -279.4 404.9 -279.88 404.38 C-280.2 404.38 -280.53 404.38 -280.88 404.38 Z M-88.69 451.88 C-89.85 451.97 -91.01 452.06 -92.21 452.16 C-92.65 452.19 -92.65 452.19 -94.88 452.38 C-94.89 452.83 -94.89 452.83 -94.99 455.12 C-95.33 461.5 -95.68 467.22 -98.25 473.12 C-99.2 476.55 -98.96 479.82 -98.88 483.38 C-94.14 484.23 -89.4 485.07 -84.66 485.89 C-82.73 486.23 -80.79 486.57 -78.86 486.93 C-48.16 492.52 -48.16 492.52 -39.88 488.38 C-41.32 484.63 -42.89 483.54 -46.5 481.89 C-47.43 481.46 -48.36 481.02 -49.32 480.57 C-50.31 480.11 -51.29 479.66 -52.31 479.19 C-73.78 468.89 -73.78 468.89 -76.88 460.38 C-77.07 458.02 -77.07 458.02 -77 455.62 C-76.98 454.83 -76.96 454.03 -76.95 453.2 C-76.92 452.6 -76.9 452 -76.88 451.38 C-80.84 451.32 -84.74 451.56 -88.69 451.88 Z M-26.88 485.38 C-25.88 489.38 -25.88 489.38 -25.88 489.38 Z M-25.88 489.38 C-25.88 491.36 -25.88 493.34 -25.88 495.38 C-25.54 495.38 -25.22 495.38 -24.88 495.38 C-24.88 493.39 -24.88 491.41 -24.88 489.38 C-25.21 489.38 -25.53 489.38 -25.88 489.38 Z " fill="#FFFFFF" transform="translate(781.875,231.625)"/>
<path d="M0 0 C1 1 1 1 1.56 3.94 C1.47 8.81 -1.54 11.4 -4.57 14.95 C-14.74 27.74 -23.23 43.96 -23.06 60.58 C-23.05 61.82 -23.05 63.06 -23.04 64.34 C-23.03 65.63 -23.01 66.92 -23 68.25 C-22.97 70.82 -22.95 73.39 -22.94 75.95 C-22.93 77.09 -22.91 78.23 -22.9 79.4 C-23 82 -23 82 -24 83 C-29.84 83.37 -29.84 83.37 -32 83 C-38.6 73.1 -36.52 56.88 -34.55 45.67 C-31.08 28.37 -21.41 13.3 -9 1 C-6.02 -0.49 -3.28 -0.12 0 0 Z " fill="#FFFFFF" transform="translate(1087,626)"/>
<path d="M0 0 C3.81 0.5 3.81 0.5 6.75 3.19 C7.81 4.6 8.82 6.04 9.81 7.5 C10.46 8.42 11.12 9.35 11.79 10.3 C20.3 23.1 23.99 36.96 24 52.31 C24.01 53.07 24.02 53.84 24.04 54.62 C24.04 56.58 23.94 58.54 23.81 60.5 C21.81 62.5 21.81 62.5 18.19 62.62 C17.07 62.58 15.96 62.54 14.81 62.5 C13.5 58.22 12.53 54.1 11.88 49.65 C9.77 35.61 5 23.61 -2.65 11.68 C-4.43 8.01 -4.56 5.53 -4.19 1.5 C-3.19 0.5 -3.19 0.5 0 0 Z " fill="#FFFFFF" transform="translate(1027.1875,649.5)"/>
<path d="M0 0 C1 1 1 1 1.4 4.25 C1 8 1 8 -1.27 10.56 C-1.79 10.96 -1.79 10.96 -4.38 13 C-14.12 21.19 -20.59 31.63 -25.06 43.51 C-25.91 45.77 -26.88 47.87 -28 50 C-34.15 50.1 -34.15 50.1 -36 50 C-37.66 48.34 -37.25 46.41 -37.31 44.12 C-37.14 30.59 -29.21 18.75 -20.24 9.08 C-14.47 3.71 -8.19 -1.42 0 0 Z " fill="#FFFFFF" transform="translate(1106,660)"/>
<path d="M0 0 C3.31 2.19 3.31 2.19 5 5 C5.44 7.69 5.44 7.69 5 10 C3 12 3 12 -0.94 12.19 C-3.68 12.16 -5.34 11.89 -8 11 C-9.2 11 -10.39 11 -11.62 11 C-12.74 11 -13.85 11 -15 11 C-16.89 9.11 -16.24 6.43 -16.33 3.91 C-16.27 3.59 -16.27 3.59 -16 2 C-11.12 -1.25 -5.7 -0.7 0 0 Z " fill="#FFFFFF" transform="translate(920,690)"/>
<path d="M0 0 C2.56 1.56 2.56 1.56 3.56 2.56 C3.69 6.06 3.69 6.06 3.56 9.56 C1.32 11.8 -3.87 10.75 -6.88 10.75 C-7.76 10.76 -8.64 10.77 -9.56 10.79 C-10.4 10.79 -11.25 10.79 -12.12 10.79 C-12.9 10.8 -13.68 10.8 -14.48 10.81 C-16.44 10.56 -16.44 10.56 -18.44 8.56 C-18.44 5.12 -18.44 5.12 -17.44 1.56 C-11.99 -2.56 -6.09 -2.55 0 0 Z " fill="#FFFFFF" transform="translate(890.4375,705.4375)"/>
</svg>
