<svg xmlns="http://www.w3.org/2000/svg" viewBox="10 10 80 80" role="img" aria-label="Drei Menschen und ein Herz als Symbol für Offenheit und gemeinsames Gestalten">
  <g fill="none" stroke="#ffffff" stroke-width="2.15" stroke-linecap="round" stroke-linejoin="round">
    <path d="M50 39L38.5 28.5c-5.5-5-2-14 4.7-14 3 0 5.4 1.5 6.8 4 1.4-2.5 3.8-4 6.8-4 6.7 0 10.2 9 4.7 14z" />

    <circle cx="28" cy="54" r="5.5" />
    <circle cx="50" cy="57" r="6.5" />
    <circle cx="72" cy="54" r="5.5" />

    <path d="M14 81V72c0-6.8 5.5-12.3 12.3-12.3h3.4c4.3 0 8.1 2.2 10.3 5.5M86 81V72c0-6.8-5.5-12.3-12.3-12.3h-3.4c-4.3 0-8.1 2.2-10.3 5.5" />
    <path d="M34 82V74c0-7.3 5.9-13.2 13.2-13.2h5.6C60.1 60.8 66 66.7 66 74v8" />
  </g>
</svg>
