<?xml version="1.0" encoding="UTF-8"?>
<!-- Generator: visioncortex VTracer 0.6.12 -->
<svg version="1.1" xmlns="http://www.w3.org/2000/svg" width="1398" height="789">
<path d="M0 0 C1.68 0.29 3.34 0.62 5 1 C18.23 45.4 18.23 45.4 24.54 66.63 C25.01 68.2 25.48 69.77 25.95 71.34 C26.59 73.52 27.24 75.7 27.89 77.88 C28.08 78.5 28.26 79.12 28.45 79.77 C28.63 80.36 28.8 80.95 28.99 81.55 C29.16 82.12 29.33 82.68 29.5 83.26 C29.85 84.49 30.17 85.72 30.47 86.96 C30.89 88.67 31.44 90.34 32 92 C32.99 92.33 33.98 92.66 35 93 C35.75 94.94 35.75 94.94 36 97 C35.67 97.66 35.34 98.32 35 99 C34.51 99.16 34.51 99.16 32 100 C32 100.84 32 101.68 32.01 102.54 C32.03 110.46 32.04 118.37 32.05 126.29 C32.06 130.36 32.06 134.43 32.08 138.49 C32.09 142.42 32.09 146.35 32.09 150.28 C32.1 151.78 32.1 153.28 32.11 154.77 C32.11 156.87 32.11 158.98 32.11 161.08 C32.12 161.69 32.12 162.31 32.12 162.94 C32.12 166.72 31.71 170.28 31 174 C32.06 173.91 33.12 173.81 34.22 173.72 C45.46 173.04 45.46 173.04 49.84 175.78 C51.77 177.76 53.45 179.71 55 182 C55.23 181.13 55.46 180.26 55.7 179.37 C58.63 168.86 58.63 168.86 61.81 165.44 C62.17 165.04 62.17 165.04 64 163 C63.66 161.17 63.66 161.17 63 159 C62.18 150.44 63.36 143.96 68.47 136.99 C71.79 133.24 74.28 131.75 79.19 130.75 C81.79 130.12 81.79 130.12 84 129 C85.41 126.35 86.14 123.75 86.96 120.86 C89.25 114.56 94.5 110.47 100.38 107.56 C109 104.25 116.49 104.44 125 108 C131.21 111.01 136.02 116.44 138.88 122.69 C139.81 125.43 140.34 127.17 140 130 C140.99 130.02 141.98 130.04 143 130.06 C148.29 130.87 151.69 133.94 155 138 C159.86 146.59 159.48 154.72 157 164 C157.29 164.11 157.29 164.11 158.75 164.69 C164.26 167.9 165.87 172.53 167.46 178.46 C169.34 187.3 167.25 195.63 162.56 203.31 C161.72 204.55 160.87 205.78 160 207 C159.4 207.89 158.8 208.77 158.19 209.69 C153.1 215.07 148.07 217.5 140.69 217.96 C140.13 217.97 139.57 217.99 139 218 C138.67 216.68 138.34 215.36 138 214 C138.64 213.72 139.28 213.44 139.94 213.15 C148.93 208.98 154.49 204.38 158.27 195.11 C160.69 188.08 160.86 181.75 157.98 174.82 C156.42 171.92 154.48 170.17 152 168 C150.67 166.67 149.33 165.33 148 164 C148.25 163.49 148.25 163.49 149.5 160.94 C151.75 155.6 151.57 151.22 149.81 145.81 C148.22 142.03 146.63 140.09 143 138 C139.71 136.83 136.38 135.87 133 135 C132.95 134.67 132.95 134.67 132.7 133.02 C131.59 126.5 130.44 121.87 125.28 117.56 C120.45 114.18 115.91 112.66 110 113 C103.04 114.29 98.87 116.94 94.85 122.63 C92.27 126.73 91.39 130.19 91 135 C88.44 135.85 86.81 136.11 84.19 136.25 C79.6 136.8 77.02 138.56 74 142 C69.66 147.93 70.45 155.06 71.23 162.11 C71.45 163.41 71.71 164.71 72 166 C71.63 166.25 71.63 166.25 69.75 167.5 C65.45 170.96 63.18 176.15 62.12 181.5 C61.79 185.64 62.13 189.25 64 193 C66.07 195.43 68.28 197.58 70.61 199.76 C73.46 202.43 75.96 205.31 78.49 208.27 C80 210 80 210 81.71 211.56 C82.14 212.03 82.56 212.51 83 213 C82.69 215.69 82.69 215.69 82 218 C80.68 218 79.36 218 78 218 C78 218.52 78 218.52 78.02 221.16 C78.03 225.07 78.05 228.98 78.05 232.89 C78.06 234.57 78.07 236.26 78.08 237.94 C78.09 240.38 78.09 242.81 78.1 245.25 C78.1 245.99 78.11 246.73 78.11 247.49 C78.11 252.72 77.67 257.82 77 263 C77.64 262.98 78.28 262.96 78.94 262.94 C88.7 262.67 98.31 263.96 108 265 C107.67 254.44 107.34 243.88 107 233 C104.03 232.34 101.06 231.68 98 231 C100 229 100 229 107 227 C107 216.77 107 206.54 107 196 C104.69 194.68 102.38 193.36 100 192 C97.56 189.25 97.56 189.25 96 187 C99 186 99 186 101.04 186.78 C101.75 187.16 102.46 187.54 103.19 187.94 C103.9 188.32 104.62 188.7 105.36 189.09 C105.9 189.39 106.44 189.69 107 190 C107.05 189.51 107.1 189.01 107.15 188.51 C109.01 170.41 109.01 170.41 111 162 C113.22 164.22 113.26 164.53 113.41 167.48 C113.45 168.15 113.49 168.82 113.53 169.51 C113.55 169.86 113.55 169.86 113.62 171.62 C113.66 172.33 113.7 173.04 113.74 173.77 C113.84 175.51 113.92 177.25 114 179 C114.95 178.4 115.9 177.8 116.88 177.19 C117.41 176.85 117.94 176.51 118.49 176.17 C120.09 174.93 120.98 173.73 122 172 C122.99 172.33 123.98 172.66 125 173 C124.52 177.31 123.38 179.06 120.06 181.81 C119.35 182.42 118.64 183.02 117.91 183.64 C116 185 116 185 114 185 C114 192.59 114 200.18 114 208 C123.55 203.23 126.79 198.74 132 190 C132.99 190.33 133.98 190.66 135 191 C134.14 198.19 131.23 204.02 126 209 C122.5 211.55 119.11 213.63 115 215 C114.67 218.96 114.34 222.92 114 227 C121.71 226 127.15 224.21 133.79 220.14 C134.52 219.77 135.25 219.39 136 219 C136.66 219.33 137.32 219.66 138 220 C138 222.12 138 222.12 137 225 C131.56 230.31 125.94 233.11 118.31 233.04 C117.5 233.03 116.69 233.03 115.86 233.02 C115.25 233.01 114.63 233.01 114 233 C114 233.36 114 233.36 114.02 235.17 C114.03 237.86 114.05 240.55 114.05 243.24 C114.06 244.96 114.08 246.69 114.09 248.41 C114.11 254.38 113.92 260.1 113 266 C113.39 266.04 113.39 266.04 115.37 266.23 C140.1 268.91 163.72 276.08 186 287 C185.67 287.66 185.34 288.32 185 289 C180.22 288.02 175.52 286.9 170.85 285.48 C158.75 281.83 146.69 278.97 134.25 276.75 C133.6 276.63 132.96 276.51 132.29 276.39 C108.32 272.04 84.31 270.45 59.99 270.61 C58.02 270.63 56.05 270.63 54.09 270.64 C35.24 270.71 16.66 271.1 -2 274 C-3.56 274.24 -5.13 274.48 -6.69 274.71 C-16.89 276.28 -27.07 277.95 -37.23 279.7 C-39.82 280.14 -42.41 280.57 -45 281 C-45.33 280.01 -45.66 279.02 -46 278 C-7.8 266.24 32.06 261.16 72 262 C71.93 260.9 71.86 259.8 71.78 258.67 C70.91 244.99 71.04 231.67 72 218 C71.46 217.95 70.91 217.9 70.36 217.85 C70 217.81 70 217.81 68.19 217.62 C67.48 217.56 66.77 217.49 66.04 217.41 C63.88 216.98 62.65 216.45 61 215 C61 214.34 61 213.68 61 213 C64.3 212.67 67.6 212.34 71 212 C70.29 211.23 69.57 210.45 68.84 209.66 C60.15 200.21 60.15 200.21 56.38 195.88 C55.83 195.26 55.29 194.65 54.73 194.02 C53.42 192.49 52.16 190.94 50.93 189.36 C47.34 184.91 44.58 181.59 38.75 180.56 C37.92 180.48 37.08 180.39 36.22 180.3 C34 180 34 180 31.19 178.25 C30.47 177.84 29.74 177.43 29 177 C26.5 177.69 26.5 177.69 24 179 C20.04 180.89 17.17 181.06 12.81 180.94 C7.84 181.24 5.23 182.06 1.88 185.59 C0.21 187.55 -1.39 189.55 -2.94 191.6 C-4.39 193.51 -5.97 195.28 -7.56 197.06 C-8.11 197.69 -8.65 198.32 -9.21 198.96 C-12.76 203.02 -16.37 207.02 -20 211 C-20.51 211.58 -21.02 212.15 -21.54 212.75 C-23.44 214.81 -24.48 215.93 -27.31 216.31 C-27.87 216.21 -28.43 216.11 -29 216 C-29.33 216.66 -29.66 217.32 -30 218 C-30.66 218 -31.32 218 -32 218 C-32 232.19 -32 246.38 -32 261 C-33.32 261.66 -34.64 262.32 -36 263 C-39.79 259.21 -38.9 252.21 -39 247 C-38.98 244.4 -38.89 241.8 -38.78 239.2 C-38.74 237.88 -38.69 236.56 -38.65 235.24 C-38.58 233.23 -38.5 231.23 -38.38 229.23 C-37.72 218.08 -37.72 218.08 -40.79 213.09 C-43.07 210.54 -45.45 208.27 -48 206 C-49.23 204.7 -50.46 203.39 -51.66 202.06 C-53.36 200.25 -55.06 198.44 -56.76 196.63 C-57.33 196.03 -57.89 195.43 -58.47 194.81 C-59.06 194.21 -59.65 193.6 -60.26 192.98 C-62 191 -62 191 -63.41 188.57 C-65.76 184.93 -67.87 182.51 -72.23 181.47 C-78.06 180.69 -83.89 180.68 -89.76 180.77 C-92.93 180.81 -96.08 180.75 -99.25 180.68 C-114.79 180.6 -114.79 180.6 -119.3 184.13 C-121.66 186.48 -123.31 189.14 -125 192 C-126.33 193.68 -127.68 195.35 -129.06 197 C-130.38 198.67 -131.69 200.33 -133 202 C-134.5 203.88 -136 205.75 -137.5 207.62 C-138.08 208.35 -138.08 208.35 -141 212 C-136.38 212.66 -131.76 213.32 -127 214 C-127 214.33 -127 214.66 -127 215 C-131.95 215.99 -136.9 216.98 -142 218 C-141.99 219.99 -141.98 221.98 -141.96 224.03 C-141.96 225.98 -141.95 227.94 -141.95 229.9 C-141.94 231.24 -141.93 232.59 -141.92 233.93 C-141.88 241.34 -141.89 248.65 -143 256 C-142.51 256.15 -142.51 256.15 -140.03 256.88 C-126.57 260.94 -113.72 266.02 -101 272 C-101 272.66 -101 273.32 -101 274 C-106.36 272.54 -111.72 271.08 -117.07 269.59 C-166.38 255.87 -213.32 252.86 -263 267 C-263 265.68 -263 264.36 -263 263 C-254.19 259.37 -245.4 256.4 -236.12 254.19 C-235.27 253.98 -234.42 253.77 -233.54 253.56 C-227.72 252.22 -221.95 251.46 -216 251 C-216.06 250.51 -216.12 250.03 -216.18 249.53 C-218.46 230.83 -218.04 212.77 -217 194 C-218.32 193.67 -219.64 193.34 -221 193 C-221.53 189.75 -221.53 187.91 -219.85 185.03 C-218.17 182.77 -216.42 180.6 -214.62 178.44 C-213.33 176.83 -212.03 175.22 -210.74 173.61 C-210.1 172.82 -209.46 172.03 -208.8 171.22 C-206.41 168.28 -204.11 165.27 -201.81 162.25 C-197.9 157.14 -193.93 152.07 -189.93 147.02 C-189.5 146.48 -189.08 145.94 -188.64 145.39 C-188.22 144.88 -187.81 144.37 -187.38 143.85 C-186 142 -186 142 -184.94 139.96 C-183.51 137.46 -182.24 135.82 -180 134 C-175.18 132.75 -170.44 132.8 -165.48 132.83 C-164.05 132.82 -162.62 132.8 -161.19 132.79 C-158.2 132.76 -155.21 132.77 -152.22 132.79 C-148.4 132.82 -144.59 132.76 -140.77 132.68 C-137.82 132.63 -134.87 132.63 -131.92 132.64 C-130.51 132.64 -129.11 132.63 -127.7 132.59 C-116.8 132.36 -116.8 132.36 -112.45 136.32 C-110.31 139.04 -108.66 141.97 -107 145 C-106.23 146.14 -105.46 147.27 -104.65 148.39 C-104.04 149.31 -103.42 150.23 -102.79 151.18 C-102.45 151.69 -102.11 152.2 -101.76 152.72 C-101.06 153.77 -100.37 154.82 -99.67 155.86 C-98.61 157.46 -97.54 159.06 -96.47 160.65 C-95.79 161.68 -95.1 162.72 -94.41 163.75 C-93.81 164.66 -93.2 165.58 -92.57 166.52 C-91.23 168.64 -90.07 170.73 -89 173 C-88.39 172.98 -87.77 172.96 -87.14 172.93 C-67.42 172.43 -67.42 172.43 -62.23 177.24 C-60.32 179.4 -58.66 181.63 -57 184 C-55.93 185.24 -54.85 186.47 -53.75 187.69 C-53.48 188 -53.48 188 -52.12 189.59 C-48.5 193.7 -44.73 197.66 -40.97 201.63 C-38.43 204.33 -35.95 207 -33.7 209.96 C-33.14 210.63 -32.58 211.31 -32 212 C-31.34 212 -30.68 212 -30 212 C-28.65 210.49 -27.37 208.91 -26.12 207.31 C-22.07 202.21 -17.76 197.41 -13.32 192.64 C-10.03 189.12 -6.81 185.55 -3.7 181.88 C-3.14 181.26 -2.58 180.64 -2 180 C-1.63 179.49 -1.26 178.98 -0.87 178.46 C1.38 175.7 2.98 174.19 6.55 173.52 C9.51 173.41 12.41 173.48 15.38 173.62 C16.4 173.65 17.42 173.68 18.47 173.71 C20.98 173.78 23.49 173.88 26 174 C25.97 173.36 25.94 172.72 25.91 172.05 C24.77 147.47 25.06 123.54 27 99 C10.83 99.33 -5.34 99.66 -22 100 C-21.67 105.61 -21.34 111.22 -21 117 C-20.91 120.61 -20.84 124.2 -20.83 127.81 C-20.83 128.74 -20.82 129.66 -20.82 130.62 C-20.81 133.56 -20.81 136.5 -20.81 139.44 C-20.81 140.44 -20.81 141.45 -20.81 142.49 C-20.83 177.85 -20.83 177.85 -24 195 C-26.25 191.38 -26.43 187.83 -26.63 183.68 C-26.67 182.96 -26.72 182.24 -26.76 181.5 C-26.89 179.15 -27.01 176.79 -27.12 174.44 C-27.15 174.03 -27.15 174.03 -27.25 171.99 C-28.5 147.95 -28.03 124.03 -27 100 C-28.32 99.34 -29.64 98.68 -31 98 C-30.67 96.35 -30.34 94.7 -30 93 C-29.01 92.67 -28.02 92.34 -27 92 C-26.28 90.57 -26.28 90.57 -25.78 88.7 C-25.58 87.99 -25.39 87.29 -25.19 86.56 C-24.99 85.77 -24.78 84.99 -24.57 84.18 C-24.35 83.36 -24.13 82.54 -23.89 81.69 C-23.41 79.89 -22.92 78.09 -22.44 76.28 C-21.15 71.42 -19.82 66.57 -18.49 61.72 C-18.21 60.7 -17.94 59.68 -17.65 58.63 C-14.63 47.59 -11.46 36.59 -8.25 25.6 C-7.32 22.4 -6.39 19.19 -5.46 15.98 C-4.88 14.01 -4.31 12.05 -3.74 10.09 C-3.48 9.18 -3.21 8.27 -2.94 7.33 C-2.7 6.51 -2.46 5.69 -2.21 4.84 C-2 4.12 -1.79 3.4 -1.57 2.65 C-1 1 -1 1 0 0 Z M1 19 C0.84 19.55 0.68 20.1 0.52 20.67 C-1.19 26.53 -2.89 32.39 -4.6 38.24 C-5.23 40.42 -5.86 42.59 -6.49 44.76 C-10.2 57.51 -13.95 70.25 -17.89 82.94 C-18.17 83.84 -18.44 84.74 -18.73 85.67 C-18.98 86.46 -19.22 87.25 -19.48 88.07 C-20 90 -20 90 -20 92 C-5.48 92 9.04 92 24 92 C19.41 73.65 19.41 73.65 17.16 66.54 C16.91 65.74 16.66 64.94 16.41 64.11 C15.63 61.62 14.85 59.12 14.06 56.62 C10.15 44.14 6.42 31.63 3 19 C2.34 19 1.68 19 1 19 Z M-185 152 C-186.25 153.66 -187.5 155.31 -188.77 156.96 C-189.98 158.57 -191.18 160.19 -192.38 161.81 C-197.42 168.59 -202.52 175.31 -207.85 181.86 C-211 185.79 -211 185.79 -211 188 C-210.24 188.06 -209.48 188.11 -208.69 188.17 C-205.85 188.38 -203.01 188.59 -200.17 188.8 C-198.94 188.89 -197.71 188.98 -196.49 189.07 C-194.72 189.2 -192.95 189.33 -191.18 189.46 C-190.11 189.54 -189.05 189.62 -187.95 189.7 C-185 190 -185 190 -180 191 C-190.56 191.66 -201.12 192.32 -212 193 C-211.99 196.11 -211.98 199.22 -211.96 202.42 C-211.96 205.47 -211.95 208.52 -211.95 211.57 C-211.94 213.67 -211.93 215.77 -211.92 217.87 C-211.83 240.27 -211.83 240.27 -213 250 C-212.05 250.01 -211.09 250.02 -210.11 250.03 C-190.85 250.25 -172.22 251.01 -153.27 254.65 C-151.14 254.98 -149.16 255.07 -147 255 C-147.03 254.45 -147.06 253.9 -147.09 253.33 C-147.73 241.54 -148.15 229.8 -148 218 C-148.49 217.84 -148.49 217.84 -151 217 C-150.69 211.48 -147.25 208.25 -143.81 204.25 C-142.54 202.74 -141.27 201.23 -140 199.73 C-139.35 198.95 -138.69 198.18 -138.01 197.38 C-134.72 193.49 -131.49 189.56 -128.25 185.62 C-127.65 184.91 -127.06 184.19 -126.44 183.45 C-125.89 182.78 -125.34 182.11 -124.77 181.41 C-124.28 180.83 -123.79 180.24 -123.29 179.63 C-122 178 -122 178 -121.14 176.32 C-120 175 -120 175 -117.75 174.57 C-116.84 174.54 -115.93 174.52 -114.99 174.49 C-114.01 174.45 -113.02 174.42 -112 174.38 C-111.49 174.37 -111.49 174.37 -108.88 174.31 C-107.83 174.28 -106.79 174.24 -105.72 174.21 C-103.15 174.13 -100.57 174.06 -98 174 C-99.39 170.43 -100.92 167.34 -103 164.12 C-103.61 163.18 -104.22 162.24 -104.85 161.26 C-107.78 156.81 -110.74 152.37 -113.71 147.95 C-114.12 147.34 -114.54 146.72 -114.96 146.09 C-115.33 145.54 -115.7 144.99 -116.08 144.43 C-117 143 -117 143 -118 141 C-125.41 140.74 -132.81 140.55 -140.22 140.43 C-143.66 140.37 -147.1 140.3 -150.54 140.17 C-153.87 140.05 -157.19 139.98 -160.52 139.96 C-161.78 139.94 -163.05 139.9 -164.31 139.84 C-175.37 139.33 -179.28 143.22 -185 152 Z " fill="#FFFFFF" transform="translate(1194,18)"/>
<path d="M0 0 C0.73 0.23 1.46 0.46 2.21 0.7 C2.92 0.92 3.64 1.14 4.37 1.38 C5.07 1.6 5.76 1.82 6.48 2.04 C7.76 2.45 9.04 2.87 10.31 3.3 C19.8 6.43 29.23 7.36 39.19 7.31 C40.28 7.31 41.38 7.31 42.51 7.31 C49.36 7.23 55.71 6.56 62.38 5.08 C80.55 1.19 98.36 5.3 114 15 C118.22 17.83 122.34 20.78 126.48 23.73 C153.46 42.88 182.37 49.79 214.71 53.81 C226.74 55.32 238.51 56.94 250 61 C250.65 61.23 251.29 61.46 251.96 61.69 C259.91 64.59 266.69 68.27 273 74 C273.65 74.57 274.29 75.13 274.96 75.72 C279.72 80.14 282.39 84.79 284.7 90.82 C289.85 104.05 303.62 110.91 315.95 116.48 C331.94 123.37 348.92 126.97 365.89 130.6 C389.84 135.76 420.94 142.49 436 164 C436.8 165.35 437.59 166.7 438.38 168.06 C446.1 180.73 463.14 184.12 476.38 188.19 C517.75 200.94 517.75 200.94 528.98 219.05 C531.65 224.13 532.02 230.28 530.5 235.81 C527.58 242.15 522.19 246.21 516 249 C507.76 252.03 499.89 253.1 491.15 252.99 C490.52 252.98 489.9 252.98 489.25 252.97 C486.65 252.93 484.04 252.89 481.43 252.83 C470 252.57 455.43 252.62 446 260 C444.4 261.95 442.98 263.97 441.54 266.04 C436.36 272.64 428.01 274.9 420 276 C409.05 276.85 398.62 275.56 387.9 273.43 C365.8 269.1 346.24 267 325.75 278.04 C314 284.07 300.92 284.49 288 284.31 C286.53 284.3 285.05 284.29 283.58 284.28 C273.41 284.18 263.27 283.77 253.12 283.12 C252.49 283.09 251.86 283.05 251.21 283.01 C243.96 282.54 236.86 281.77 229.71 280.4 C225.29 279.75 222.13 279.31 218.25 281.69 C216 284 216 284 215.11 286.38 C213.84 289.37 212.36 290.91 210.06 293.19 C197.12 306.86 188.53 325.49 184.02 343.62 C183 346 183 346 180.89 346.85 C180.26 346.9 179.64 346.95 179 347 C177.5 343.11 178.53 339.85 179.62 336 C179.81 335.33 180 334.67 180.19 333.98 C184.71 318.23 192.19 303.33 203 291 C203.55 290.34 204.1 289.69 204.66 289.01 C206.96 286.27 209.3 283.67 211.88 281.19 C214 279 214 279 214 277 C213.07 276.65 212.14 276.3 211.18 275.93 C197.83 270.81 186.02 265.43 176 255 C175.54 254.52 175.08 254.04 174.6 253.55 C171.98 250.27 171.49 246.76 170.69 242.69 C168.95 234.1 164.63 228.76 157.75 223.5 C155.85 222.28 153.96 221.12 152 220 C151.42 219.67 150.85 219.33 150.26 218.99 C137.84 211.98 124.61 208.31 110.89 204.8 C93.82 200.34 78.79 193.52 68 179 C67.08 176.23 66.86 174 66.76 171.11 C66.42 162.49 64.89 157.57 58.62 151.56 C46.18 141.34 30.68 135.73 15.83 130 C-0.4 123.72 -23.28 114.74 -31.44 98.06 C-33 96 -33 96 -34.88 95.66 C-37.92 95.61 -40.26 95.63 -43 97 C-44.39 97.1 -45.78 97.15 -47.17 97.16 C-48.04 97.17 -48.91 97.18 -49.8 97.19 C-50.75 97.19 -51.7 97.2 -52.68 97.2 C-53.66 97.21 -54.64 97.22 -55.66 97.22 C-84.3 97.38 -111.34 95.84 -139.5 90.5 C-140.29 90.35 -141.09 90.2 -141.9 90.05 C-144.16 89.62 -146.41 89.17 -148.66 88.72 C-149.33 88.59 -150 88.46 -150.68 88.33 C-154.64 87.51 -157.61 86.31 -161 84 C-160.67 82.68 -160.34 81.36 -160 80 C-156.09 78.97 -153.43 79.11 -149.52 80.07 C-148.99 80.2 -148.99 80.2 -146.28 80.84 C-145.72 80.98 -145.16 81.12 -144.57 81.26 C-108.49 90.01 -72.02 92.68 -35 92 C-35.01 91.66 -35.01 91.66 -35.03 89.92 C-35.04 89.02 -35.05 88.12 -35.06 87.2 C-35.06 86.75 -35.06 86.75 -35.09 84.49 C-34.96 81.04 -34.22 78.6 -32 76 C-30.45 74.69 -28.89 73.4 -27.31 72.12 C-23.24 68.62 -23.24 68.62 -22.24 66.03 C-21.87 59.63 -25.77 53.74 -29.67 48.95 C-31.49 46.97 -33.36 45.04 -35.25 43.12 C-36.59 41.73 -37.92 40.34 -39.25 38.95 C-39.89 38.27 -40.53 37.6 -41.2 36.91 C-54.78 22.53 -54.78 22.53 -55.38 12.38 C-54.81 7.29 -53.1 3.78 -49.38 0.31 C-35.22 -10.29 -15.33 -4.82 0 0 Z M-46 8 C-47.4 10.81 -47.65 12.97 -47 16 C-43.51 23.22 -38.67 28.91 -33.06 34.56 C-15.14 52.83 -15.14 52.83 -14.56 63.56 C-14.74 68.03 -15.92 70.78 -19 74 C-20.53 75.38 -22.09 76.67 -23.73 77.92 C-25 79 -25 79 -26 81 C-26.56 87.98 -24.97 93.76 -20.69 99.38 C-8.6 112.41 8.61 119.5 24.94 125.44 C38.63 130.42 52.05 136.15 63 146 C63.64 146.54 64.29 147.08 64.95 147.64 C69.77 151.97 72.52 156.66 74 163 C74.04 164.9 74.02 166.79 73.94 168.69 C73.79 173.29 74.26 175.87 77.28 179.39 C89.25 190.6 104.24 195.28 119.72 199.45 C138.64 204.56 162.07 211.94 174 228.75 C175.95 232.2 176.62 235.63 177.38 239.5 C179.37 249.03 185.1 254.02 193.01 259.27 C219.83 274.77 250.79 276.08 281 277 C281.81 277.02 282.62 277.05 283.45 277.08 C299.56 277.5 313.26 275.68 328 269 C350.02 259.08 370.37 262.05 393.38 266.62 C406.34 269.14 421.44 271.33 433.5 264.31 C435.7 262.27 437.08 260.51 438.75 258.06 C444.11 250.59 453.35 247.95 462.07 246.28 C469.94 245.14 478.09 245.56 486.02 245.56 C510.75 245.53 510.75 245.53 519.75 238.38 C523.22 234.71 523.36 232.26 523.27 227.37 C522.51 220.66 517.81 216.21 512.83 212.04 C499.35 202.35 482.98 198.08 467.34 193.16 C438.44 184.03 438.44 184.03 432.59 173.46 C432.13 172.52 431.67 171.59 431.19 170.62 C424.12 156.96 407.31 150.2 393.36 145.57 C392.91 145.42 392.91 145.42 390.61 144.65 C380.56 141.41 370.33 139.18 360 137 C335.29 131.79 308.79 125.62 289 109 C288.25 108.39 287.5 107.77 286.73 107.14 C281.73 102.65 279.62 98.18 277.26 91.96 C272.01 79.62 260.9 73.24 248.98 68.42 C234.41 62.93 218.69 61.66 203.34 59.75 C169.92 55.56 142.65 44.53 115.05 25.25 C98.66 13.87 82.02 8.77 62.04 12.35 C60.11 12.74 58.18 13.15 56.25 13.56 C35.16 17.93 15.85 13.55 -4.13 6.87 C-17.23 2.49 -34.7 -2.96 -46 8 Z " fill="#FFFFFF" transform="translate(513,223)"/>
<path d="M0 0 C3.32 1.53 4.89 4.15 6.99 7.07 C7.88 8.26 8.77 9.45 9.66 10.64 C10.09 11.22 10.52 11.8 10.96 12.4 C15.17 17.97 19.81 22.71 25.14 27.21 C27.28 29.1 29.25 31.08 31.24 33.13 C34.21 36.17 37.27 38.55 40.79 40.93 C42.61 42.34 43.2 43.93 44.18 46 C46.38 48.51 48.68 50.68 52 51.4 C54.06 51.49 56.05 51.41 58.11 51.27 C58.86 51.24 59.62 51.21 60.4 51.18 C62.8 51.09 65.21 50.95 67.61 50.82 C69.19 50.74 70.77 50.67 72.35 50.6 C74.7 50.5 77.05 50.4 79.4 50.29 C92.38 49.69 105.22 50.09 118.18 50.88 C118.93 50.92 119.69 50.97 120.46 51.01 C130.23 51.59 139.99 52.24 149.74 53.07 C150.68 53.15 151.63 53.22 152.6 53.31 C153.03 53.34 153.03 53.34 155.18 53.54 C155.91 53.6 156.64 53.67 157.39 53.74 C159.18 54 159.18 54 161.18 55 C160.76 60.69 159.47 63.77 155.86 68.13 C155.42 68.68 154.98 69.24 154.52 69.81 C149.38 76.15 143.83 82.11 138.18 88 C137.71 88.5 137.24 88.99 136.77 89.5 C131.77 94.77 126.58 99.76 120.93 104.32 C120.45 104.72 119.98 105.12 119.5 105.54 C117.44 107.12 115.89 108.09 113.26 107.78 C111.32 107.23 111.32 107.23 108.18 106 C111.42 102.65 114.8 99.46 118.24 96.32 C118.66 95.93 118.66 95.93 120.77 93.99 C123.18 92 123.18 92 125.36 90.98 C127.72 89.71 128.03 88.4 129.18 86 C130.65 84.44 132.18 82.92 133.74 81.44 C138.31 77.02 142.32 72.33 146.27 67.35 C147.82 65.44 149.39 63.7 151.18 62 C134.92 53.88 106.11 58.8 87.93 58.82 C87.26 58.82 86.6 58.82 85.91 58.82 C-0.69 58.86 -86.32 70.33 -170.82 89 C-171.54 89.16 -172.27 89.32 -173.01 89.49 C-175.21 90.11 -175.8 90.81 -177.11 92.66 C-177.31 92.92 -177.31 92.92 -178.28 94.26 C-178.66 94.81 -179.05 95.37 -179.45 95.94 C-183.66 101.82 -185.84 104.19 -192.82 106 C-191.18 101.05 -188.34 97.07 -185.39 92.82 C-184.9 92.09 -184.41 91.37 -183.9 90.62 C-183.42 89.93 -182.95 89.24 -182.45 88.52 C-182.02 87.9 -181.59 87.27 -181.14 86.62 C-178.78 83.72 -176.51 82.77 -172.86 82.14 C-172.47 82.07 -172.47 82.07 -170.46 81.71 C-169.61 81.56 -168.76 81.42 -167.88 81.26 C-166.06 80.92 -164.24 80.57 -162.43 80.21 C-159.57 79.67 -156.72 79.13 -153.86 78.64 C-136.22 75.61 -136.22 75.61 -131.53 69.72 C-129.83 67.22 -128.34 64.62 -126.82 62 C-124.65 59.45 -122.3 57.14 -119.89 54.82 C-119.32 54.26 -118.76 53.7 -118.18 53.13 C-114.14 49.16 -114.14 49.16 -111.82 48 C-113.17 40.02 -121.14 32.5 -126.2 26.38 C-126.63 25.86 -127.06 25.34 -127.5 24.8 C-130.58 21.13 -130.58 21.13 -132.82 20 C-132.82 18.35 -132.82 16.7 -132.82 15 C-126.44 12.3 -119.99 10.82 -113.2 9.5 C-112.1 9.29 -111.01 9.08 -109.88 8.86 C-82.7 3.67 -55.99 -1.28 -31.73 14.95 C-28.36 17.29 -25.14 19.8 -22.02 22.46 C-20.1 23.81 -18.58 24.56 -16.43 25.41 C-12.71 26.93 -10 29.04 -7.01 31.69 C-5.97 32.59 -4.92 33.48 -3.88 34.38 C-3.37 34.82 -2.85 35.27 -2.32 35.72 C0.66 38.27 3.74 40.7 6.84 43.11 C9.18 45 9.18 45 11.23 47.05 C16.75 52.26 21.23 52.64 28.5 52.45 C32.14 52.26 35.62 51.83 39.18 51 C35.38 47.11 31.57 43.28 27.43 39.75 C18.75 32.21 11.06 24.19 4.05 15.07 C3.49 14.34 2.94 13.62 2.36 12.88 C-0.26 9.38 -2.49 6.22 -3.82 2 C-1.82 0 -1.82 0 0 0 Z M-99.95 13.88 C-100.74 14.01 -101.54 14.15 -102.35 14.29 C-104.64 14.68 -106.92 15.09 -109.21 15.5 C-109.55 15.56 -109.55 15.56 -111.27 15.86 C-115.27 16.61 -119 17.63 -122.82 19 C-120.03 22.77 -117.21 26.51 -114.34 30.22 C-113.9 30.78 -113.47 31.34 -113.02 31.92 C-112.16 33.04 -111.29 34.15 -110.43 35.26 C-107.73 38.74 -105.23 42.31 -102.82 46 C-106.84 50.83 -110.99 55.14 -115.76 59.21 C-117.99 61.15 -120.14 63.14 -122.26 65.19 C-122.92 65.82 -123.58 66.46 -124.26 67.11 C-125.94 69.14 -126.28 70.47 -126.82 73 C-126.04 72.88 -125.26 72.76 -124.45 72.64 C-123.36 72.47 -122.28 72.3 -121.16 72.13 C-120.57 72.04 -119.99 71.95 -119.39 71.85 C-116.4 71.39 -113.42 70.95 -110.43 70.53 C-107.09 70.06 -103.77 69.54 -100.45 69 C-99.33 68.86 -98.2 68.71 -97.05 68.56 C-92.32 67.77 -88.99 67.18 -85.56 63.7 C-83.8 61.2 -82.28 58.69 -80.82 56 C-76.67 49.59 -70.6 47.05 -63.82 44 C-64.07 46.88 -64.07 46.88 -64.82 50 C-66.63 51.18 -66.63 51.18 -68.82 52 C-70.22 53.04 -71.57 54.13 -72.89 55.25 C-73.56 55.82 -74.23 56.38 -74.92 56.96 C-77.26 59.48 -78.41 61.88 -79.82 65 C-74.49 64.37 -69.16 63.69 -63.82 63 C-63.25 62.93 -62.68 62.86 -62.1 62.78 C-58.21 62.29 -54.32 61.78 -50.44 61.27 C-49.11 61.09 -47.79 60.92 -46.46 60.75 C-44.57 60.51 -42.69 60.26 -40.8 60 C-39.7 59.86 -38.6 59.72 -37.46 59.57 C-34.82 59 -34.82 59 -32.82 57 C-33.27 56.59 -33.72 56.17 -34.18 55.74 C-36.25 53.81 -38.32 51.87 -40.39 49.94 C-41.09 49.28 -41.8 48.63 -42.52 47.95 C-43.22 47.3 -43.92 46.64 -44.64 45.97 C-45.34 45.32 -46.04 44.66 -46.77 43.99 C-48.12 42.68 -49.44 41.33 -50.72 39.94 C-55.15 35.13 -55.15 35.13 -58.54 34.51 C-59.46 34.72 -60.38 34.92 -61.32 35.13 C-62.43 35.36 -63.53 35.6 -64.67 35.84 C-71.1 37.56 -77.47 39.59 -83.78 41.7 C-92.65 44.59 -92.65 44.59 -97.82 43 C-95.77 41.91 -93.71 40.83 -91.64 39.75 C-91.08 39.45 -90.52 39.15 -89.94 38.84 C-79.99 33.73 -69.12 31.42 -58.17 29.62 C-56.32 29.32 -54.48 29 -52.64 28.67 C-44.71 27.32 -36.85 26.48 -28.82 26 C-32.67 21.71 -36.53 19.3 -41.7 16.82 C-42.04 16.65 -42.04 16.65 -43.77 15.78 C-61.42 7.12 -81.26 10.7 -99.95 13.88 Z M-30.42 31.75 C-31.6 31.84 -32.79 31.92 -33.97 32 C-35.68 32.11 -37.39 32.24 -39.1 32.37 C-40.12 32.44 -41.15 32.52 -42.2 32.59 C-44.7 32.98 -45.92 33.4 -47.82 35 C-43.67 39.28 -39.4 43.31 -34.86 47.16 C-32.04 49.71 -29.6 52.58 -27.17 55.5 C-20.68 59.66 -9.95 56.43 -2.76 55.5 C-1.6 55.36 -0.43 55.21 0.73 55.07 C3.54 54.72 6.36 54.36 9.18 54 C5.85 50.55 2.44 47.56 -1.45 44.75 C-6.24 41.23 -10.88 37.57 -15.43 33.75 C-20.17 29.8 -24.36 31.3 -30.42 31.75 Z " fill="#FFFFFF" transform="translate(701.82421875,620.99609375)"/>
<path d="M0 0 C0.33 0.66 0.33 0.66 2 4 C1.69 4.13 1.69 4.13 0.14 4.79 C-12.43 10.16 -24.9 15.61 -37 22 C-37.76 22.4 -38.52 22.8 -39.3 23.21 C-73.86 41.43 -114.31 66.6 -127 106 C-131.58 124.11 -128.17 140.28 -119.08 156.23 C-116.47 160.52 -113.34 164.27 -110 168 C-109.32 168.81 -108.65 169.61 -107.95 170.44 C-57.25 229.57 43.39 252.72 322 296 C322 296.66 322 297.32 322 298 C230.11 296.21 137.26 283.72 -110 180 C-110.83 179.23 -111.65 178.45 -112.5 177.66 C-125.97 164.71 -136.76 145.95 -138 127 C-138.03 126.67 -138.03 126.67 -138.16 125 C-139.12 102.31 -126.19 81.44 -111.5 65.36 C-81.5 33.18 -40.7 14.66 0 0 Z " fill="#FFFFFF" transform="translate(298,309)"/>
<path d="M0 0 C35.15 12.75 68.51 29.47 95.65 55.7 C96.96 56.96 98.28 58.19 99.61 59.42 C114.96 74.03 126.57 93.3 127.35 114.89 C127.66 139.8 115.29 159.14 98.41 176.57 C90.34 184.76 81.57 191.64 72 198 C71.27 198.49 70.53 198.98 69.78 199.48 C26 228.26 -24.66 244.82 -75 258 C-75.64 258.17 -76.28 258.34 -76.94 258.51 C-155.1 278.94 -236.01 289.51 -316.62 293.19 C-317.09 293.21 -317.09 293.21 -319.46 293.32 C-331.98 293.88 -344.47 294.11 -357 294 C-357 293.34 -357 292.68 -357 292 C-356.46 291.96 -355.93 291.93 -355.37 291.89 C-286.08 287.12 -217.38 279.37 -149 267 C-148.54 266.92 -148.54 266.92 -146.19 266.49 C-73.56 253.32 10.41 233.91 85 178 C85.79 177.35 86.59 176.7 87.41 176.03 C101.46 164.14 115.41 145.77 118 127 C118.94 115.7 118.46 105.53 114 95 C113.76 94.44 113.53 93.88 113.28 93.3 C93.46 47.42 40.2 23.88 -2 3 C-1.34 2.01 -0.68 1.02 0 0 Z " fill="#FFFFFF" transform="translate(1147,315)"/>
<path d="M0 0 C0.49 -0.01 0.49 -0.01 2.98 -0.04 C18.58 0.06 32.84 4.11 47.44 9.25 C78.87 20.19 78.87 20.19 93.81 22.19 C94.65 22.3 95.49 22.42 96.36 22.54 C116.04 25.11 135 21.44 153.94 16.09 C158.76 14.74 163.6 13.47 168.44 12.19 C169.36 11.94 170.28 11.69 171.23 11.43 C199.82 3.86 226.57 7.93 254.7 15.22 C267.94 18.6 281.78 21.39 295.5 20.38 C296.09 20.33 296.67 20.29 297.28 20.25 C306.18 19.53 314.44 17.79 322.92 14.96 C329.13 12.94 329.13 12.94 332.5 14.38 C332.23 16.26 332.23 16.26 331.5 18.38 C329.89 19.44 329.89 19.44 327.82 20.23 C327.06 20.52 326.3 20.81 325.52 21.11 C324.71 21.41 323.9 21.7 323.06 22 C322.24 22.31 321.42 22.61 320.57 22.93 C314.95 24.97 309.46 26.66 303.5 27.38 C302.71 27.48 301.92 27.59 301.1 27.7 C298.57 28.01 296.05 28.21 293.5 28.38 C292.67 28.44 291.83 28.51 290.98 28.57 C276.1 29.19 261.2 24.89 246.89 21.22 C214.17 12.83 185.5 14.55 153.42 24.06 C139.56 28.14 126.16 30.92 111.66 30.82 C109.7 30.81 107.73 30.84 105.76 30.87 C88.09 30.98 71.84 25.83 55.38 19.88 C18.95 6.77 -12.22 5.76 -49.49 16.66 C-67.32 21.83 -67.32 21.83 -76.5 22.38 C-76.9 22.41 -76.9 22.41 -78.94 22.57 C-87.56 22.96 -99.3 21.6 -106.5 16.38 C-106.17 15.38 -105.84 14.39 -105.5 13.38 C-97.18 14.26 -97.18 14.26 -93.12 14.94 C-76.15 17.23 -59.39 12.05 -43.25 7.31 C-28.65 3.05 -15.29 0.17 0 0 Z " fill="#FFFFFF" transform="translate(568.5,721.625)"/>
<path d="M0 0 C0.33 0 0.33 0 2.01 0 C12.19 0.05 21.85 0.48 31.38 4.38 C31.94 4.61 32.51 4.84 33.1 5.07 C45.57 10.4 54.61 19.28 60.25 31.55 C62.38 36.9 63.72 41.68 64 47.44 C64.04 48.11 64.07 48.79 64.11 49.48 C64.4 55.48 64.51 61.49 64.56 67.5 C64.58 68.39 64.59 69.28 64.6 70.19 C64.61 75 64.4 78.97 62.38 83.38 C60.25 84.25 60.25 84.25 58.38 84.38 C56.57 82.06 56.13 80.57 56.14 77.64 C56.13 76.9 56.13 76.16 56.12 75.4 C56.13 74.6 56.13 73.8 56.14 72.97 C56.12 71.26 56.1 69.55 56.09 67.83 C56.07 65.15 56.06 62.46 56.07 59.78 C56.09 44.2 54.03 32.38 42.79 20.73 C28.65 7.62 10.51 7.78 -7.61 8.25 C-22.66 8.86 -35.74 12.76 -46.38 24.12 C-51.62 30.47 -55.68 38.02 -55.8 46.38 C-55.81 47.15 -55.83 47.93 -55.84 48.72 C-55.85 49.55 -55.86 50.38 -55.87 51.23 C-55.9 52.98 -55.94 54.74 -55.97 56.49 C-56.02 59.26 -56.06 62.02 -56.1 64.78 C-56.14 67.45 -56.19 70.12 -56.25 72.79 C-56.25 73.62 -56.26 74.45 -56.27 75.3 C-56.29 76.07 -56.3 76.84 -56.32 77.63 C-56.33 78.31 -56.34 78.98 -56.35 79.68 C-56.62 81.38 -56.62 81.38 -58.62 83.38 C-61.25 83 -61.25 83 -63.62 82.38 C-63.73 76.76 -63.8 71.14 -63.84 65.52 C-63.86 63.61 -63.89 61.7 -63.93 59.8 C-64.24 42.32 -62.28 29.42 -49.88 16.19 C-36.12 3.06 -18.29 -0.06 0 0 Z " fill="#FFFFFF" transform="translate(196.625,184.625)"/>
<path d="M0 0 C38.63 -1.08 76.54 4.82 114.14 13.08 C114.14 14.07 114.14 15.06 114.14 16.08 C113.46 16.01 112.79 15.94 112.09 15.86 C105.68 15.17 99.27 14.48 92.86 13.79 C89.56 13.43 86.27 13.08 82.97 12.72 C79.78 12.38 76.59 12.03 73.4 11.69 C72.19 11.56 70.99 11.43 69.78 11.3 C65.9 10.88 62.02 10.47 58.14 10.08 C57.17 9.98 56.2 9.88 55.21 9.78 C46.76 8.99 38.34 8.89 29.85 8.84 C29.09 8.84 28.32 8.83 27.53 8.83 C21.71 8.79 15.89 8.78 10.08 8.77 C9.22 8.77 8.37 8.77 7.49 8.77 C-18.8 8.73 -44.74 9.31 -70.84 12.81 C-72.78 13.07 -74.71 13.31 -76.65 13.55 C-102.12 16.69 -127.76 21.63 -152.4 28.82 C-156.84 30.12 -161.33 31.13 -165.86 32.08 C-165.86 31.09 -165.86 30.1 -165.86 29.08 C-112.72 8.37 -56.63 1.63 0 0 Z " fill="#FFFFFF" transform="translate(184.86083984375,275.91748046875)"/>
<path d="M0 0 C7.87 6.57 11.33 14.1 12.7 24.13 C13.22 32.59 9.46 40.97 4.21 47.45 C-2.16 53.88 -9.25 57.24 -18.25 57.61 C-27.52 57.41 -35.12 54.61 -41.84 48.15 C-48.46 40.77 -50.88 33.71 -50.5 23.86 C-49.6 14.94 -46.18 7.87 -39.59 1.77 C-27.52 -7.37 -12.7 -8.76 0 0 Z M-38.56 11.23 C-42.69 17.4 -43.73 23.95 -42.56 31.23 C-40.06 38.92 -35.77 44.53 -28.58 48.26 C-22.16 50.95 -17.06 50.95 -10.56 48.67 C-4.45 46.03 0.21 42.02 3.38 36.11 C5.72 29.61 5.72 21.19 2.94 14.86 C-0.86 8.53 -6.66 3.87 -13.7 1.67 C-23.4 -0.59 -32.29 3.96 -38.56 11.23 Z " fill="#FFFFFF" transform="translate(216.55859375,115.765625)"/>
<path d="M0 0 C4.59 3.54 7.48 7.54 8.69 13.25 C9.05 18.74 8.03 22.37 4.5 26.62 C0.36 30.85 -3.13 33.3 -9.19 33.69 C-14.51 33.45 -19.03 31.42 -22.89 27.75 C-27.01 23.01 -27.61 18.95 -27.52 12.75 C-27.11 7.84 -25.06 4.72 -21.5 1.5 C-15.1 -3.36 -7 -4.36 0 0 Z " fill="#FFFFFF" transform="translate(699.3125,580.75)"/>
<path d="M0 0 C4.47 3.08 8.08 6.74 9.81 11.94 C10.52 18.16 9.53 23.4 5.68 28.41 C1.6 32.81 -2.17 34.04 -8 34.38 C-13.48 34.27 -17.04 32.43 -21.19 28.94 C-25.23 24.5 -25.48 20.22 -25.4 14.44 C-24.98 9.46 -22.91 6.38 -19.25 3.19 C-13.25 -1.61 -7.3 -2.43 0 0 Z " fill="#FFFFFF" transform="translate(335.1875,281.0625)"/>
<path d="M0 0 C4.47 3.08 8.08 6.74 9.81 11.94 C10.59 18.38 9.71 23.65 5.81 28.94 C1.35 33.07 -3.35 34.29 -9.33 34.14 C-15.61 33.45 -19.16 30.36 -23.02 25.56 C-26.05 21.35 -25.6 16.95 -25.19 11.94 C-23.41 6.49 -19.8 3.16 -15.19 -0.06 C-10.06 -1.77 -5.13 -1.71 0 0 Z " fill="#FFFFFF" transform="translate(1127.1875,287.0625)"/>
<path d="M0 0 C5.32 4.42 8.21 10.16 9.32 16.93 C9.74 23.78 7.45 30.21 2.94 35.34 C-3.18 41.04 -8.32 43.48 -16.7 43.25 C-23.13 42.55 -28.66 39.81 -33 35 C-37.46 28.67 -38.71 22.69 -38 15 C-36.05 6.98 -31.93 2.29 -25 -1.98 C-16.87 -6.12 -7.64 -4.4 0 0 Z M-27.36 8.5 C-30.5 13.06 -31.77 17.51 -31 23 C-29.07 28.9 -26.44 32.11 -21 35 C-16.64 36.45 -12.47 36.87 -8.06 35.32 C-2.68 32.52 0.08 28.77 2 23 C2.58 17.11 1.46 12.86 -2 8 C-6.05 4.32 -10.54 2.62 -16.03 2.72 C-20.38 3.33 -24.39 5.23 -27.36 8.5 Z " fill="#FFFFFF" transform="translate(306,154)"/>
<path d="M0 0 C5.49 4.31 8.61 8.87 9.46 15.87 C9.74 23.75 8.88 29.53 3.54 35.46 C-1.64 40.31 -7.27 42.8 -14.36 43.18 C-21.56 42.87 -26.99 40.13 -31.86 34.87 C-36.84 28.59 -37.7 22.6 -36.92 14.75 C-35.68 9.26 -33.21 4.45 -28.92 0.75 C-19.41 -5.18 -9.62 -6.28 0 0 Z M-26.29 8.24 C-29.74 13.28 -30.53 17.81 -29.92 23.75 C-27.93 29.39 -24.23 33.09 -18.92 35.75 C-14.25 36.26 -9.61 36.65 -5.55 34 C1.69 27.79 1.69 27.79 2.39 22.33 C2.68 16.04 2.05 12.15 -2.14 7.34 C-5.74 4.11 -9.14 3.01 -13.86 2.31 C-18.61 2.99 -22.99 4.62 -26.29 8.24 Z " fill="#FFFFFF" transform="translate(116.921875,154.25390625)"/>
<path d="M0 0 C0.78 0.07 1.56 0.13 2.37 0.2 C9.28 1.57 15.07 4.72 21.06 8.31 C31.81 14.51 42.31 16.77 54.69 13.75 C68.79 10.57 82.42 12.24 95.12 18.81 C104.41 23.58 112.8 24.07 123.12 23.75 C123.12 24.41 123.12 25.07 123.12 25.75 C108.25 30.34 98.71 27.72 84.97 21.49 C74.99 17.48 63.07 19.47 53.01 22.07 C48.92 23.03 45.28 23.13 41.12 22.75 C40.23 22.68 39.33 22.61 38.4 22.54 C28.12 21.32 19.4 16.66 10.88 11 C-0.38 3.78 -13.18 5.35 -25.88 6.75 C-24.88 4.75 -24.88 4.75 -21.93 3.71 C-20.68 3.36 -19.44 3.02 -18.19 2.69 C-17.57 2.51 -16.96 2.34 -16.33 2.16 C-10.89 0.66 -5.68 -0.56 0 0 Z " fill="#FFFFFF" transform="translate(754.875,406.25)"/>
<path d="M0 0 C3.08 1.04 6.15 2.08 9.23 3.11 C11.32 3.81 13.41 4.52 15.49 5.23 C23.71 8.02 31.58 10.05 40.25 10.66 C40.83 10.77 41.4 10.88 42 11 C42.33 11.66 42.66 12.32 43 13 C16.8 13.81 16.8 13.81 4.91 9.66 C-2 7.26 -9.01 5.14 -16 3 C-16.3 2.91 -16.3 2.91 -17.82 2.44 C-40.94 -4.4 -64.66 1.2 -86.97 8.07 C-91.48 9.43 -95.28 10.34 -100 10 C-100 9.01 -100 8.02 -100 7 C-65.11 -7.05 -36.22 -12.29 0 0 Z " fill="#FFFFFF" transform="translate(607,755)"/>
<path d="M0 0 C7.12 5.64 11.57 12.93 13.38 21.88 C13.48 24.19 13.54 26.46 13.54 28.77 C13.54 29.09 13.54 29.09 13.55 30.75 C13.56 32.13 13.56 33.51 13.56 34.89 C13.56 37.01 13.58 39.12 13.6 41.24 C13.6 42.58 13.6 43.92 13.61 45.27 C13.61 45.9 13.62 46.53 13.63 47.18 C13.6 51.65 13.6 51.65 11.38 53.88 C7.84 53.35 7.84 53.35 6.38 51.88 C6.25 50 6.2 48.12 6.16 46.23 C6.14 45.05 6.11 43.87 6.08 42.69 C6.04 40.83 6 38.97 5.97 37.12 C5.81 26.65 5.16 15.75 -2.62 7.88 C-9.23 2.75 -15.82 0.57 -24.11 0.62 C-24.46 0.62 -24.46 0.62 -26.24 0.61 C-27.72 0.61 -29.2 0.61 -30.68 0.62 C-32.92 0.63 -35.16 0.62 -37.4 0.61 C-44.69 0.6 -51.59 0.7 -58.62 2.88 C-59.29 0.9 -59.94 -1.08 -60.62 -3.12 C-58.9 -3.77 -57.17 -4.41 -55.44 -5.05 C-54.47 -5.41 -53.51 -5.77 -52.52 -6.14 C-36.25 -11.61 -14.11 -9.8 0 0 Z " fill="#FFFFFF" transform="translate(323.625,215.1171875)"/>
<path d="M0 0 C0 0.33 0 0.66 0 1 C-0.84 1.05 -1.68 1.09 -2.55 1.14 C-13.72 1.77 -24.89 2.41 -36.06 3.06 C-36.98 3.12 -37.9 3.17 -38.84 3.22 C-74.54 5.31 -110.2 7.83 -145.86 10.53 C-148.88 10.76 -151.89 10.99 -154.9 11.21 C-158.6 11.49 -162.29 11.78 -165.98 12.06 C-167.63 12.19 -169.28 12.31 -170.93 12.44 C-171.67 12.49 -172.4 12.55 -173.16 12.61 C-177.12 12.91 -181.03 13.06 -185 13 C-181.48 10.94 -177.9 10.28 -173.93 9.63 C-173.23 9.51 -172.53 9.39 -171.81 9.27 C-169.5 8.88 -167.19 8.5 -164.88 8.12 C-164.07 7.99 -163.27 7.86 -162.45 7.73 C-145.36 4.93 -128.24 2.69 -111 1 C-110.24 0.92 -109.47 0.85 -108.69 0.77 C-72.57 -2.75 -36.15 -3.73 0 0 Z " fill="#FFFFFF" transform="translate(809,703)"/>
<path d="M0 0 C1.75 0.94 1.75 0.94 2.75 3.94 C-28.71 35.98 -74.45 64.51 -118.25 75.94 C-118.25 74.62 -118.25 73.3 -118.25 71.94 C-117.64 71.67 -117.04 71.4 -116.41 71.12 C-78.76 54.27 -39.48 34.47 -9.26 5.8 C-2.93 -0.08 -2.93 -0.08 0 0 Z " fill="#FFFFFF" transform="translate(1099.25,321.0625)"/>
<path d="M0 0 C6.07 -0.2 11.82 0.39 17.78 1.47 C18.45 1.59 19.11 1.7 19.8 1.83 C24.11 2.67 27.56 4.03 31.41 6.16 C30.75 7.81 30.09 9.46 29.41 11.16 C28.18 11.01 26.95 10.87 25.72 10.72 C25.03 10.64 24.35 10.56 23.64 10.47 C21.41 10.16 21.41 10.16 19.14 9.65 C14.48 8.81 9.77 8.89 5.04 8.86 C3.84 8.85 2.63 8.83 1.42 8.8 C-8.9 8.55 -17.72 10.25 -26.06 16.68 C-34.96 25.24 -34.93 36.63 -35.22 48.16 C-35.26 49.42 -35.3 50.68 -35.34 51.95 C-35.43 55.02 -35.52 58.09 -35.59 61.16 C-36.91 61.82 -38.23 62.48 -39.59 63.16 C-41.92 61.36 -42.55 60.47 -42.98 57.51 C-42.99 56.47 -42.99 55.42 -42.99 54.34 C-43 53.77 -43 53.21 -43 52.62 C-43 51.41 -43 50.21 -42.98 49 C-42.97 47.19 -42.98 45.38 -43 43.57 C-43.03 31.54 -40.85 21.29 -32.59 12.16 C-23.35 3.81 -12.15 0.73 0 0 Z " fill="#FFFFFF" transform="translate(98.59375,206.84375)"/>
<path d="M0 0 C0.79 0.13 1.59 0.25 2.4 0.38 C11.68 1.97 20.64 4.68 29.67 7.29 C41.12 10.6 52.62 12.53 64.44 13.94 C57.76 18.94 45.23 17.25 37.37 16.18 C29.35 14.93 21.64 12.98 13.86 10.72 C-8.56 4.27 -30.97 6.57 -53.22 12.58 C-59.49 14.27 -65.47 15.07 -72 15 C-73.05 14.99 -74.1 14.98 -75.18 14.97 C-75.97 14.96 -76.75 14.95 -77.56 14.94 C-75.28 13.25 -73.18 12.4 -70.46 11.61 C-69.65 11.37 -68.84 11.13 -68 10.88 C-67.14 10.63 -66.27 10.38 -65.38 10.12 C-54.73 7.02 -54.73 7.02 -50.39 5.54 C-43.05 3.05 -35.85 1.29 -28.19 0.12 C-27.38 0 -26.57 -0.12 -25.74 -0.25 C-17.07 -1.45 -8.64 -1.38 0 0 Z " fill="#FFFFFF" transform="translate(783.5625,754.0625)"/>
<path d="M0 0 C2.07 1.52 4.1 3.06 6.06 4.71 C14.71 11.81 23.34 11.25 34.1 10.86 C44.56 10.63 52.33 12.75 61.04 18.48 C70.53 24.39 78.23 26.42 89.47 26.98 C85.67 30.78 80.69 30.28 75.54 30.29 C67.91 30.12 62.72 26.77 56.41 22.85 C48.78 18.18 40.83 16.7 31.97 18.48 C22.75 20.32 12.89 18.45 4.96 13.36 C2.75 11.62 0.61 9.8 -1.53 7.98 C-3.05 6.84 -4.59 5.74 -6.15 4.66 C-6.82 4.19 -7.5 3.72 -8.19 3.24 C-13.87 0.17 -19.15 -0.31 -25.46 -0.15 C-26.15 -0.14 -26.83 -0.13 -27.54 -0.12 C-29.2 -0.1 -30.86 -0.06 -32.53 -0.02 C-32.53 -1.01 -32.53 -2 -32.53 -3.02 C-21.16 -5.73 -10.22 -6.86 0 0 Z " fill="#FFFFFF" transform="translate(609.52587890625,299.0244140625)"/>
<path d="M0 0 C0.45 0.3 0.45 0.3 2.75 1.84 C11.16 7.43 20.16 9.52 30.09 7.79 C43.09 5.71 51.96 8.48 62.75 15.34 C71.92 21.17 80.42 22.74 91.25 23.28 C86.2 26.84 80.25 26.8 74.25 26.28 C68.64 25.18 63.99 22.64 59.13 19.72 C50.41 14.48 42.5 13.06 32.33 14.77 C19.96 16.81 9.63 15.21 -0.68 7.93 C-1.24 7.53 -1.8 7.13 -2.37 6.72 C-13.32 -1.1 -22.56 -1.13 -35.75 -0.72 C-36.08 -1.38 -36.41 -2.04 -36.75 -2.72 C-23.71 -7.03 -11.95 -7.48 0 0 Z " fill="#FFFFFF" transform="translate(707.74609375,360.71875)"/>
<path d="M0 0 C0.99 0 1.98 0 3 0 C4 3 4 3 3 6 C2.93 8.06 2.92 10.13 2.94 12.19 C2.95 13.27 2.96 14.36 2.96 15.48 C2.98 16.31 2.99 17.14 3 18 C6.3 18 9.6 18 13 18 C12.98 17.2 12.95 16.41 12.93 15.59 C12.75 5.06 12.75 5.06 15 0 C17 1 17 1 17.62 2.64 C18.11 5.69 18.11 8.68 18.06 11.75 C18.06 12.35 18.05 12.95 18.05 13.57 C18.04 15.05 18.02 16.52 18 18 C20.31 18.33 22.62 18.66 25 19 C25 19.99 25 20.98 25 22 C22.69 22.33 20.38 22.66 18 23 C18.33 25.64 18.66 28.28 19 31 C18.01 31.33 17.02 31.66 16 32 C15.34 31.67 14.68 31.34 14 31 C13.41 28.35 13.26 25.71 13 23 C9.37 23 5.74 23 2 23 C1.67 24.98 1.34 26.96 1 29 C0.34 29 -0.32 29 -1 29 C-3.45 23.39 -3.1 18.28 -2.75 12.25 C-2.71 11.29 -2.67 10.33 -2.63 9.35 C-2.26 2.26 -2.26 2.26 0 0 Z " fill="#FFFFFF" transform="translate(1117,243)"/>
<path d="M0 0 C0.57 -0.01 1.13 -0.02 1.72 -0.03 C4.53 0.81 5.73 2.19 7.5 4.5 C7.93 7.42 7.93 7.42 7.81 10.69 C7.78 11.83 7.74 12.97 7.7 14.15 C7.1 24.15 7.1 24.15 6.5 26.5 C5.84 26.83 5.18 27.16 4.5 27.5 C4.16 25.13 3.83 22.75 3.5 20.38 C3.4 19.71 3.31 19.04 3.21 18.36 C2.66 14.37 2.4 10.54 2.5 6.5 C0.85 6.5 -0.8 6.5 -2.5 6.5 C-2.49 7.18 -2.48 7.86 -2.46 8.55 C-2.4 14.94 -2.73 21.16 -3.5 27.5 C-4.82 27.5 -6.14 27.5 -7.5 27.5 C-7.62 23.75 -7.69 20 -7.75 16.25 C-7.78 15.19 -7.82 14.12 -7.85 13.03 C-7.86 12 -7.88 10.98 -7.89 9.92 C-7.91 8.98 -7.93 8.04 -7.95 7.07 C-7.21 2.85 -4.41 -0.08 0 0 Z " fill="#FFFFFF" transform="translate(1196.5,133.5)"/>
<path d="M0 0 C1.22 3.06 1.05 5.96 0.88 9.2 C0.83 10.18 0.78 11.16 0.73 12.17 C0.68 13.19 0.62 14.2 0.56 15.25 C0.51 16.28 0.46 17.31 0.4 18.38 C0.27 20.92 0.14 23.46 0 26 C-1.94 26.56 -1.94 26.56 -4 27 C-5.58 25.42 -5.22 23.72 -5.32 21.53 C-5.36 20.63 -5.4 19.73 -5.44 18.8 C-5.48 17.86 -5.52 16.91 -5.56 15.94 C-5.61 14.99 -5.65 14.04 -5.69 13.06 C-5.8 10.71 -5.9 8.35 -6 6 C-11.61 5.67 -17.22 5.34 -23 5 C-23.33 4.01 -23.66 3.02 -24 2 C-22 0 -22 0 -20.35 -0.21 C-19.71 -0.19 -19.07 -0.18 -18.41 -0.16 C-18.06 -0.15 -18.06 -0.15 -16.28 -0.13 C-15.55 -0.11 -14.82 -0.08 -14.06 -0.06 C-12.62 -0.03 -11.17 0 -9.72 0.03 C-9.08 0.05 -8.44 0.06 -7.78 0.08 C-0.73 -0.24 -0.73 -0.24 0 0 Z " fill="#FFFFFF" transform="translate(1091,239)"/>
<path d="M0 0 C2.27 0.04 4.49 0.15 6.75 0.31 C7.06 0.33 7.06 0.33 8.63 0.42 C12.42 0.69 15.57 1.24 19 3 C19.33 3.66 19.66 4.32 20 5 C17.76 6.12 16.57 6.12 14.09 6.1 C13.33 6.09 12.56 6.09 11.78 6.09 C10.99 6.08 10.19 6.07 9.38 6.06 C8.57 6.06 7.77 6.05 6.95 6.05 C4.96 6.04 2.98 6.02 1 6 C1 10.62 1 15.24 1 20 C-0.32 20.33 -1.64 20.66 -3 21 C-5.23 16.54 -4.8 9.61 -3.36 4.91 C-2.45 3.08 -1.45 1.45 0 0 Z " fill="#FFFFFF" transform="translate(1225,230)"/>
<path d="M0 0 C0.99 0.33 1.98 0.66 3 1 C4.46 10.29 5.33 20.06 2 29 C0.68 28.34 -0.64 27.68 -2 27 C-2.06 23.63 -2.09 20.25 -2.12 16.88 C-2.14 15.92 -2.16 14.97 -2.18 13.99 C-2.21 8.87 -2.02 4.73 0 0 Z " fill="#FFFFFF" transform="translate(1203,243)"/>
<path d="M0 0 C1.32 0.66 2.64 1.32 4 2 C4.23 5.44 4.43 8.87 4.62 12.31 C4.69 13.29 4.75 14.27 4.82 15.27 C4.87 16.21 4.92 17.15 4.98 18.11 C5.03 18.98 5.08 19.84 5.14 20.73 C4.99 23.16 4.54 24.16 3 26 C-0.88 25.12 -0.88 25.12 -2 24 C-2.1 21.45 -2.14 18.93 -2.12 16.38 C-2.13 15.68 -2.13 14.98 -2.14 14.25 C-2.11 2.11 -2.11 2.11 0 0 Z " fill="#FFFFFF" transform="translate(1022,222)"/>
<path d="M0 0 C0.99 0.33 1.98 0.66 3 1 C3.23 4.79 3.43 8.58 3.62 12.38 C3.69 13.46 3.75 14.54 3.82 15.65 C3.87 16.68 3.92 17.71 3.98 18.77 C4.03 19.73 4.08 20.68 4.14 21.66 C4 24 4 24 2 26 C-0.12 25.62 -0.12 25.62 -2 25 C-3.34 20.41 -2.95 16.11 -2.69 11.38 C-2.65 10.5 -2.62 9.63 -2.58 8.73 C-2.54 7.9 -2.49 7.07 -2.45 6.21 C-2.41 5.45 -2.37 4.69 -2.33 3.91 C-2 2 -2 2 0 0 Z " fill="#FFFFFF" transform="translate(1001,222)"/>
<path d="M0 0 C1.94 0.81 1.94 0.81 3.94 2.81 C3.61 5.12 3.61 5.12 2.94 7.81 C2.67 9.5 2.42 11.2 2.18 12.89 C2.05 13.83 1.92 14.76 1.78 15.72 C1.65 16.68 1.51 17.64 1.38 18.62 C1.24 19.6 1.1 20.58 0.96 21.59 C0.61 24 0.28 26.41 -0.06 28.81 C-0.39 28.81 -0.72 28.81 -1.06 28.81 C-2.4 21.75 -3.39 15.01 -3.06 7.81 C-3.72 7.81 -4.38 7.81 -5.06 7.81 C-5.29 4.97 -5.42 3.35 -3.81 0.94 C-2.06 -0.19 -2.06 -0.19 0 0 Z " fill="#FFFFFF" transform="translate(1197.0625,64.1875)"/>
<path d="M0 0 C0.33 0 0.66 0 1 0 C1.91 3.91 2.19 7.61 2.25 11.62 C2.28 12.75 2.3 13.88 2.33 15.04 C2 18 2 18 0.48 19.9 C-0.01 20.26 -0.5 20.63 -1 21 C-3.72 17.48 -3.38 14.29 -3 10 C-1.59 1.59 -1.59 1.59 0 0 Z " fill="#FFFFFF" transform="translate(1231,245)"/>
<path d="M0 0 C3.97 3.97 3.16 10.4 3.33 15.73 C2.93 18.46 2.11 19.3 0 21 C-2.93 16.96 -1.79 12.88 -1.12 8.25 C-1.02 7.46 -0.92 6.66 -0.81 5.85 C-0.55 3.9 -0.28 1.95 0 0 Z " fill="#FFFFFF" transform="translate(1247,245)"/>
</svg>
