<svg xmlns="http://www.w3.org/2000/svg" viewBox="0 0 64 64" role="img" aria-hidden="true"><g fill="none" stroke="#0B2446" stroke-width="2.15" stroke-linecap="round" stroke-linejoin="round"><circle cx="19" cy="19" r="4.5"/><path d="M19 9v3M19 26v3M9 19h3M26 19h3M12 12l3 3M24 24l3 3M26 12l-3 3M15 24l-3 3"/><path d="M14 35h20l-2.5 12H11.5z"/><path d="M19 35l-2 12M26 35l1 12M33 41H13"/><path d="M22 47v5M17 52h10"/><rect x="39" y="30" width="11" height="19" rx="2"/><path d="M42.5 30v-2h4v2M45 34v5M42.5 36.5h5"/></g></svg>