<svg xmlns="http://www.w3.org/2000/svg" viewBox="0 0 64 64" role="img" aria-hidden="true"><g fill="none" stroke="#0B2446" stroke-width="2.15" stroke-linecap="round" stroke-linejoin="round"><circle cx="32" cy="32" r="29"/><circle cx="32" cy="32" r="10"/><circle cx="32" cy="11" r="2"/><circle cx="53" cy="32" r="2"/><circle cx="32" cy="53" r="2"/><circle cx="11" cy="32" r="2"/><circle cx="17" cy="17" r="2"/><circle cx="47" cy="17" r="2"/><circle cx="17" cy="47" r="2"/><circle cx="47" cy="47" r="2"/><path d="M32 13v9M51 32h-9M32 51v-9M13 32h9M19 19l7 7M45 19l-7 7M19 45l7-7M45 45l-7-7"/><path d="M34 24l-5 9h6l-4 8"/></g></svg>